<svg width="1024" height="1024" viewBox="0 0 1024 1024" fill="none" xmlns="http://www.w3.org/2000/svg">
<path fill-rule="evenodd" clip-rule="evenodd" d="M149.491 458.682C157.767 466.535 167.079 472.252 178.393 474.058C187.732 474.331 196.449 474.268 205.165 474.205C211.536 473.833 217.079 473.47 222.611 472.973C229.263 472.377 235.95 470.854 242.539 471.22C249.952 471.632 257.249 473.852 264.639 475.016C274.414 476.557 283.03 480.696 290.197 487.255C296.499 493.023 302.007 499.659 307.866 505.912C308.885 507 309.5 508 312.014 510.984C313.626 512.398 315.217 513.882 316.808 515.366C321 519.5 328.97 526.122 334.591 528.608C340.093 531.611 344.99 534.762 350.332 536.662C355.987 538.673 362.056 539.54 367.962 540.822C374.148 542.165 380.356 543.408 387.005 544.788C383.907 549.401 380.679 554.148 377.515 558.937C375.04 562.684 374.865 566.287 378.191 569.759C381.29 572.993 384.781 573.155 387.469 569.523C389.618 566.619 391.374 563.365 392.919 560.085C397.729 549.88 406.318 545.521 416.93 545.252C423.677 545.08 430.46 546.361 437.227 546.99C446.299 549.514 454.569 551.833 462.839 554.152C473 558 489.245 572.715 498.835 586.338C500.112 588.152 501.228 592.976 501.089 592.998C502.283 600.138 504.47 607.407 504.518 614.69C504.818 660.28 504.641 705.873 504.621 751.466C501.824 763.117 495.807 771.972 488.079 779.639C474.465 793.145 457.696 798.13 438.844 796.993C429.41 794.737 420.907 792.653 412.405 790.57C400 785.5 392.11 777.568 383.832 770.975C383 770.313 382.845 769.988 382.208 769.52C374.738 762.207 367.849 754.968 360.186 748.672C348.645 739.189 335.2 733.036 320.156 736.132C309.131 738.4 298.491 743.156 288.128 747.802C281.727 750.673 281.488 757.216 286.959 759.472C288.088 759.938 289.69 760.292 290.699 759.847C296.283 757.385 301.752 754.659 307.26 752.023C318.779 746.181 329.763 746.062 340.838 751.121C343.5 752.337 346.5 754 348.718 755.369C352.092 757.451 357.5 762 360.033 764.407C365.616 770.412 370.945 775.874 376.194 781.41C379.238 784.62 378.717 787.599 375.319 790.243C362.128 800.505 355.015 814.651 350.81 830.275C349.451 835.324 350.217 841.035 350.586 846.404C350.702 848.097 353.088 851.188 353.751 851.015C356.282 850.354 359.507 849.188 360.679 847.17C362.78 843.554 363.753 839.231 364.874 835.115C365.802 831.704 366.265 828.165 366.933 824.683C367.872 821.704 368.603 819.505 369.335 817.307C370.5 815.5 377.5 805 380.853 802.78C385.5 799 389.318 795.683 395.491 796.472C396.514 796.992 396.974 797.018 397.434 797.044C409.156 803.33 420.655 808.351 433.357 809.337C440.383 809.882 447.496 809.306 454.57 809.236C471.116 807.548 484.525 799.706 496.818 789.553C500.742 786.313 502.801 787.07 504.266 792.215C504.047 792.951 504.017 792.965 504.017 792.965C504.156 793.28 504.269 793.615 504.382 793.949C504.288 802.866 504.445 811.493 504.602 820.12C504.443 821.185 504.512 821.342 504.581 821.498C504.438 824.024 504.532 826.099 504.628 828.174C504.514 829.477 504.591 829.907 504.668 830.338C504.461 835.344 504.526 839.742 504.592 844.139C504.491 845.786 504.562 846.511 504.632 847.234C504.417 849.666 504.511 851.425 504.604 853.183C504.423 854.187 504.488 854.342 504.554 854.496C504.42 856.374 504.505 857.8 504.59 859.225C504.32 860.042 504.516 860.494 504.517 860.497C504.422 864.673 504.529 868.398 504.635 872.123C504.467 873.18 504.535 873.339 504.603 873.497C504.292 876.377 504.189 878.785 504.086 881.192C501.375 902.058 489.098 914.553 471.837 923.152C469.861 924.137 467.779 924.909 465.746 925.78C449.043 933.211 432.023 936.213 414.737 935.34C401.612 934.676 388.612 931.519 375.557 929.472C356.905 924.24 340.169 916.817 325.541 905.06C323.984 903.809 322.144 902.735 321.01 901.164C315.147 893.036 306.652 890.857 297.337 889.416C269.964 885.181 249.149 869.698 231.157 849.67C230.569 848.631 230.145 848.246 229.72 847.862C229.544 847.316 229.699 847.218 229.703 847.216C229.406 847.191 229.103 846.98 228.799 846.769C228.637 846.237 228.768 846.236 228.777 846.237C227.551 845.096 226.418 843.839 225.285 842.584C225.077 841.973 225.005 841.976 225.005 841.976C224.643 841.497 224.252 841.083 223.861 840.669C223.728 840.121 223.884 840.075 223.893 840.073C223.622 840.014 223.352 839.782 223.082 839.55C222.955 839.039 222.998 839.006 223.003 839.004C222.317 838.263 221.658 837.475 221 836.686C220.863 836.103 220.936 836.057 220.943 836.054C220.278 835.321 219.641 834.504 219.005 833.686C218.866 833.084 218.945 833.052 218.949 833.05C218.187 832.103 217.454 831.072 216.72 830.041C216.501 829.466 216.514 829.381 216.515 829.378C216.187 828.879 215.884 828.454 215.581 828.029C215.418 827.523 215.432 827.424 215.432 827.424C212.824 821.892 210.269 816.44 207.715 810.987C207.551 810.256 207.623 810.153 207.625 810.151C206.45 806.452 205.216 802.646 203.981 798.84C203.877 798.058 203.955 798.043 203.958 798.043C194.538 790.768 163.262 762.5 155.503 746.299C148.006 730.648 144.941 714.249 146.624 696.937C147.038 692.675 146.772 688.346 146.818 684.049C146.838 683.257 146.832 683.16 146.838 683.161C144.539 682.637 132.5 659.855 131.626 658.187C122.813 641.379 120.685 623.165 122.895 604.646C124.21 593.632 131.81 571.458 131.81 570.229C131.81 569 126.771 558.994 125.135 546.747C123.5 534.5 123 524 124.597 512.927C131.626 483 132.222 472.752 149.491 458.682ZM229.449 559.247C226.093 555.937 223.294 556.627 220.567 559.061C220.439 562.048 220.311 565.035 220.169 568.494C220.162 568.714 220.157 568.799 220.154 568.827C220.153 568.823 220.151 568.82 220.15 568.816C220.15 568.818 220.151 568.858 220.154 568.827C220.902 570.784 221 571.5 222.204 574.77C223.539 577.555 224.874 580.34 226.211 583.49C227.126 585.644 228.802 587.629 229.578 588.846C240.3 605.672 254.485 617.478 272.919 625.197C257.372 634.03 247.759 647.078 240.438 662.097C240.153 662.821 239.867 663.544 239.391 664.55C239.203 664.829 239.023 664.998 239.017 665.003C238.173 667.514 237.328 670.025 236.267 672.783C236.054 673.026 236.127 673.048 236.128 673.049C235.455 678.053 234.781 683.058 234.108 688.496C234.108 688.925 234.141 688.808 234.141 688.806C234.525 689.233 234.909 689.66 235.301 690.382C235.31 690.666 235.39 690.544 235.395 690.536C235.892 690.817 236.388 691.098 237.128 691.963C242.143 694.146 243.474 690.388 244.721 687.365C246.129 683.951 246.694 680.2 247.798 676.649C251.943 663.325 259.233 651.921 269.297 642.326C276.471 635.486 285.654 632.965 295.024 630.98C295.925 630.657 296.836 630.029 297.725 630.057C308.396 630.398 319.064 630.836 330.323 631.603C347.038 635.628 359.352 644.327 367.111 659.169C368.413 661.66 370.228 663.884 371.809 666.23C380.973 679.827 392.578 690.418 408.378 695.788C416.131 698.423 423.951 700.862 431.678 703.566C436.122 705.121 438.95 702.694 440.41 699.404C442.089 695.618 439.411 693.103 435.892 691.932C431.488 690.467 427.055 688.988 422.527 688.013C403.648 683.95 389.657 673.607 380.54 656.492C378.055 651.828 374.887 647.475 371.649 643.274C363.041 632.107 350.888 626.487 337.889 622.301C321.493 620.579 305.055 619.164 288.722 616.965C283.109 616.209 277.76 613.493 272.121 611.384C271.95 611.094 271.945 611.201 271.945 611.201C257.273 606.618 241.669 586.921 235.949 573.342C235.948 573.044 235.922 573.123 235.922 573.123C234.901 571.016 233.88 568.91 232.87 566.427C232.881 566.062 232.88 566.147 232.879 566.152C231.874 564.028 230.869 561.904 229.449 559.247Z" fill="#0D7F99"/>
<path d="M550.017 103.067C562.009 99.2073 574.108 100.629 586.129 102.253C609.664 105.431 632.388 111.449 653.376 123.001C663.279 128.451 672.135 135.093 677.694 145.208C679.465 148.43 682.088 149.27 685.306 149.934C720.461 157.191 747.805 176.018 767.5 205.939C773.558 215.144 776.676 224.998 775.811 236.466C774.815 249.664 776.745 263.15 775.087 276.217C772.688 295.128 761.139 309.239 746.661 321.009C738.034 328.023 728.16 332.64 717.866 336.672C715.072 337.766 711.318 341.095 711.325 343.388C711.332 345.874 714.741 349.42 717.493 350.639C727.788 355.202 737.371 360.628 745.279 368.76C756.333 380.129 762.262 394.145 762.683 409.569C763.167 427.294 753.552 441.054 741.071 452.877C726.15 467.011 706.981 473.233 688.609 480.86C678.951 484.869 668.853 487.829 659.241 491.935C639.27 500.467 626.457 516.382 616.81 535.096C611.496 545.406 607.749 556.593 601.826 566.506C588.747 588.391 568.349 600.555 544.182 607.114C538.608 608.627 533.206 610.412 528.315 605.62C527.104 602.243 525.422 599.504 525.411 596.759C525.15 533.04 525.067 469.321 524.976 405.602C524.974 403.951 525.26 402.299 525.412 400.647C528.656 392.137 534.253 388.295 542.388 388.139C554.329 387.911 566.273 387.583 578.201 386.994C582.145 386.799 586.018 385.288 589.966 385.031C602.948 384.187 613.487 390.223 623.048 397.987C631.184 404.594 637.43 412.869 639.928 423.278C640.92 427.41 640.961 431.826 641.002 436.117C641.041 440.352 642.312 443.662 646.878 443.781C651.325 443.897 652.683 440.834 653.337 436.575C656.229 417.759 645.969 404.906 633.987 392.848C626.285 385.098 617.402 378.985 607.003 375.279C606.267 375.016 605.638 374.448 604.352 373.64C605.597 372.182 606.489 370.867 607.636 369.836C623.756 355.339 631.18 337.317 630.273 315.633C629.99 308.868 629.966 301.875 631.36 295.312C633.281 286.265 640.318 280.454 647.27 274.871C656.923 267.119 668.267 262.922 679.766 258.977C683.288 257.769 687.801 257.107 686.732 251.698C685.954 247.763 681.188 245.778 675.982 247.216C672.307 248.231 668.482 249.303 665.251 251.231C646.714 262.292 627.196 248.083 621.583 232.289C617.832 221.736 617.073 211.212 622.943 201C624.796 197.775 625.036 194.554 621.583 192.175C617.901 189.64 615.14 191.844 613.071 194.601C606.275 203.659 604.884 214 606.515 224.918C608.771 240.014 617.475 251.378 627.964 261.68C630.211 263.887 632.533 266.018 635.22 268.563C631.343 273.522 627.58 278.275 623.883 283.079C619.37 288.945 617.154 295.646 616.987 303.011C616.794 311.497 617.32 320.053 616.408 328.457C614.943 341.945 607.108 352.014 597.007 360.497C582.771 372.453 566.747 378.739 547.802 376.846C534.183 375.486 523.945 368.491 524.021 351.758C524.198 312.932 524.081 274.105 524.091 235.278C524.1 205.45 524.051 175.62 524.196 145.793C524.226 139.653 524.377 133.394 525.555 127.403C528.191 114.003 537.659 107.045 550.017 103.067Z" fill="#FCC231"/>
<path fill-rule="evenodd" clip-rule="evenodd" d="M461.496 100.346C469.099 99.8031 477.215 102.494 484.682 104.975C494.265 108.16 500.118 115.589 503.117 125.206C503.634 130.535 504.615 135.113 504.623 139.691C504.783 231.78 504.838 323.869 504.899 415.958C504.925 455.426 504.965 494.895 504.852 534.363C504.84 538.618 503.843 542.87 503.302 547.123C499.208 556.759 492.889 558.887 484.222 553.298C468.825 543.367 452.138 537.071 433.962 535.212C419.898 533.773 405.741 533.264 391.646 532.098C366.1 529.986 342.743 522.266 323.73 504.275C318.18 499.024 313.103 493.252 308.019 487.533C294.194 471.98 276.482 464.206 256.316 460.902C238.474 457.979 220.838 459.569 203.166 462.28C190.392 464.24 177.83 463.777 166.462 456.67C154.946 449.469 147.843 439.353 146.752 425.452C144.72 399.587 154.167 377.549 169.351 357.433C171.754 354.25 174.51 351.333 177.103 348.293C177.968 347.548 178.204 347.193 178.439 346.838C178.863 346.699 178.872 346.861 178.872 346.861C179.29 345.969 179.865 345.118 180.44 344.268C180.969 343.951 181.003 343.995 181.003 343.995C181.541 341.616 182.625 339.258 182.64 336.892C182.719 324.781 184.935 313.089 188.867 301.68C193.405 287.157 201.528 275.689 211.595 265.591C220.144 257.016 229.073 248.868 240.342 243.71C245.453 241.37 248.295 237.422 249.426 231.24C252.574 214.044 262.967 200.776 275.074 188.813C286.525 177.499 299.586 168.266 314.167 161.533C324.493 156.764 335.388 153.234 345.956 148.968C348.344 148.004 351.161 146.794 352.535 144.827C367.858 122.885 390.818 113.384 415.289 107.293C430.356 103.542 445.992 101.454 461.496 100.346ZM413.777 194.261C413 192 405.066 192.281 403.826 197.981C402.876 202.344 401.856 206.692 400.868 211.047C399.569 215.648 398.27 220.25 396.739 225.087C393.5 231 388.374 236.051 380.115 240.65C374.963 243.845 370.598 247.207 365.715 249.439C348.726 257.205 336.22 269.405 329.152 286.609C320.975 306.511 320.829 327.106 325.695 347.865C326.133 349.734 326.614 351.593 327.329 354.479C323.83 354.152 321.258 353.972 318.703 353.663C301.647 351.597 284.807 352.14 268.378 357.752C262.887 359.627 262.121 361.208 264.092 366.602C265.5 368.5 269.957 368.067 272.576 367.456C285.943 364.338 299.338 362.773 312.998 364.963C313.767 365.086 314.489 365.504 316.008 365.79C318.744 366.063 320.834 365.984 322.641 366.661C330.81 369.723 339.143 372.499 346.956 376.32C357.502 381.479 367.829 387.169 377.869 393.259C385.832 398.091 389.968 405.823 391.102 415.088C392.411 425.783 395.431 435.795 401.386 444.99C409.032 456.795 419.209 465.46 431.89 471.214C433.299 471.853 436.097 471.346 437.253 470.285C441.527 466.357 440.922 463.767 435.108 460.566C421.374 453.005 411.443 442.347 407.131 426.972C406.151 419.789 405.171 412.606 404.603 404.754C405.401 400.374 405.785 396.663 406.17 392.953C406.798 390.363 407.427 387.773 408.254 384.968C408.45 384.759 408.435 384.574 408.434 384.565C411.11 377.901 413.818 373.126 418.735 366C421.988 361.285 425.386 357.221 427.615 352.594C429.462 348.759 430.458 344.295 430.741 340.037C430.846 338.446 428.164 335.957 426.219 335.126C423.824 334.102 421.608 335.369 420.256 338.111C418.352 341.975 415.887 345.558 413.818 349.346C408.25 359.54 402.826 369.812 397.165 379.952C396.524 381.099 394.71 382.303 393.479 382.264C390.711 382.177 387.684 381.895 385.262 380.689C373.823 374.992 362.311 369.368 351.298 362.91C342.769 357.908 337.749 349.685 335.526 340.083C332.918 328.82 332.417 317.417 334.138 305.913C335.602 296.131 340.349 287.75 345.742 279.901C349.322 274.69 354.296 270.306 359.154 266.145C362.46 263.313 368.715 260 376 257.5C383.115 254.5 382.5 254.5 386.377 251.805C391.946 247.157 397.561 242.563 403.158 237.947C405.5 235.5 408.5 230 409.489 227.933C410.013 226.976 410.5 226 410.87 225.043C411.276 223.744 411.683 222.446 412.308 220.967C414.5 211.5 415 196 413.777 194.261Z" fill="#26783F"/>
<path d="M792.175 242.717C799.709 248.772 806.254 253.516 812.207 258.912C832.11 276.955 842.019 300.126 845.962 326.232C846.16 327.549 846.609 328.91 846.445 330.186C845.003 341.384 851.248 349.007 857.827 356.978C869.801 371.488 877.623 388.397 880.437 406.908C885.036 437.155 875.571 461.233 848.469 478.819C844.146 481.624 839.772 484.356 835.364 487.026C824.622 493.533 818.52 503.807 812.972 514.52C804.993 529.929 795.393 543.85 780.253 553.328C766.216 562.115 750.816 566.138 734.608 567.905C720.774 569.413 707.546 573.108 695.148 579.471C691.564 581.311 688.963 584.103 690.019 588.715C690.885 590.456 692 592.943 694.039 592.943C695.5 593.5 709.732 586.447 717.516 583.086C722.66 580.865 731 582.5 736.265 587.682C745.126 595.226 751.806 603.985 754.034 615.667C760.847 651.395 743.497 686.247 711.373 701.659C699.099 707.547 686.644 708.691 673.703 704.004C662.844 700.071 651.626 697.755 640.03 697.99C637.679 698.037 634.229 698.804 633.012 699.9C627.721 704.668 633.97 710.417 638.587 711.008C642.592 711.519 646.15 711.903 649.709 712.288C650.115 712.941 650.568 713.002 650.582 713.004C653.471 713.642 655.913 714.159 658.355 714.676C659.267 715.002 659.539 715.031 659.799 715.162C661.349 715.98 662.591 716.52 663.832 717.059C664.222 717.578 664.313 717.525 664.315 717.523C667.779 719.375 671.136 721.227 674.493 723.079C675.227 723.796 675.627 723.986 676.027 724.176C676.251 724.807 676.228 724.654 676.228 724.654C679.928 727.469 683.474 730.312 687.019 733.155C687.249 733.76 687.198 733.964 687.195 733.974C687.631 734.109 688.049 734.45 688.466 734.791C688.565 735.315 688.603 735.462 688.603 735.462C690.019 737.516 691.443 739.421 692.867 741.325C693.766 743.698 694.564 745.387 695.361 747.076C695.38 747.793 695.331 747.879 695.331 747.879C701.4 759.32 697.545 774.142 686.048 783.213C685.42 783.405 685.312 783.419 685.312 783.419C675.391 790.632 664.481 790.293 653.496 787.315C644.821 784.964 636.365 781.808 627.812 779.009C617.152 778.495 607.802 780.293 599.658 786.145C595.576 789.078 564.636 823.62 560.5 826.5C532.5 846 528.5 842 525.016 804.5C525.145 769.385 525.098 806.26 525.051 771.931C525.126 741.781 525.053 712.559 525.013 683.338C524.998 672.213 525.062 661.088 525.089 649.964C525.207 648.434 525.208 647.831 525.211 647.229C529.134 632.667 537.187 622.993 551.609 618.669C576.482 611.211 596.831 596.615 612.046 575.891C618.08 567.673 621.049 557.062 624.718 547.281C631.177 530.066 641.07 515.398 657.052 506.158C665.702 501.157 675.635 498.198 685.229 495.048C705.739 488.312 725.106 479.541 742.71 466.811C760.114 454.226 770.045 437.106 774.609 416.641C776.908 406.333 773.339 396.504 769.996 386.903C764.461 371.01 754.955 358.113 740.546 349.048C738.328 347.652 736.367 345.845 733.51 343.626C737.19 341.341 740.34 339.383 743.494 337.43C773.703 318.724 789.666 291.864 790.264 256.091C790.329 252.215 791.341 248.355 792.175 242.717Z" fill="#F96D32"/>
<path d="M562 840.266C580 827.5 598.032 807.119 599.919 804.331C605.488 796.098 613.347 792.269 622.96 792.135C627.117 792.078 631.423 792.819 635.427 793.995C641.138 795.673 646.591 798.213 652.239 800.135C655.582 801.272 657 803.372 656.941 806.788C656.875 810.609 656.936 814.432 656.941 818.255C657.178 819.454 660.412 832.884 660.173 832.926C661 840.266 669.741 846.019 680.906 852.193C682.5 853.5 690.668 853.705 693.085 853.96C693.942 853.795 693.94 853.923 693.939 853.93C694.346 853.306 694.886 852.733 695.427 852.16C695.959 851.889 695.966 851.967 695.966 851.967C696.046 850.205 696.202 848.452 696.359 846.699C696.205 846.029 695.909 845.793 695.909 845.793C695.224 844.865 694.555 844.315 693.886 843.765C692.954 843 688.354 840.5 687.879 840.266C685.848 839.267 683.882 838.171 681.917 837.074C680.5 836 678.5 833.569 676.893 832.1C673.5 829 670.765 823.053 670.14 817.438C669.811 814.479 670.16 811.451 670.048 808.461C669.887 804.191 671.817 801.905 676.102 801.651C697.563 796.373 708.711 782.831 710.365 761.696C711.35 749.112 706.005 737.981 700.508 727.125C697.221 720.634 697.077 720.043 703.807 718.121C718.552 713.911 731.012 705.895 742.203 695.661C744.159 693.873 746.124 692.094 748.309 690.106C755.916 697.371 764.512 702.489 774.509 705.083C783.776 707.712 792.349 709.165 801.027 706.047C803.5 705 804.438 700.08 803.508 698.514C802.325 696.525 798.722 694.769 796.294 694.926C783.086 695.782 771.731 691.994 761.784 683.298C758.189 680.155 757.488 677.147 759.566 672.817C766.373 658.639 770.112 643.727 769.005 627.879C767.948 612.759 763.583 598.817 753.752 586.939C753.221 586.298 752.693 585.652 752.196 584.984C748.752 580.362 749.436 578.389 755.089 577.126C767.088 574.443 778.088 569.528 788.36 562.803C803.824 552.681 815.328 539.174 823.11 522.487C829.641 508.484 839.004 497.131 853.106 490.284C864.277 484.86 871.607 475.332 879.478 466.345C880.329 465.374 881.043 464.282 882.203 462.735C889.093 469.03 893.566 476.499 896.931 484.653C907.448 510.14 909.027 535.896 899.141 562.018C897.929 565.22 897.647 568.774 896.934 572.164C902.057 588.22 905.832 603.589 905.265 619.921C904.623 638.372 899.758 655.319 889.732 670.8C889.174 671.155 889.203 671.082 889.205 671.079C887.28 674.049 885.508 677.033 883.419 679.773C880.521 683.574 879.281 687.607 880.725 692.282C880.767 693.491 880.849 693.915 880.932 694.338C880.891 702.696 880.935 710.408 880.977 718.12C876.719 745.836 864.533 768.632 842.448 784.25C829.938 793.097 823.094 803.97 816.599 817.294C797.1 857.298 766.859 884.627 720.826 890.882C717.315 891.359 713.242 893.174 710.873 895.714C692.033 915.911 667.443 924.58 641.673 930.932C616.437 937.152 591.46 936.116 567.015 927.113C551.247 921.306 537.948 912.186 530.518 896.473C528.348 891.884 526.856 887 525.843 881.839C524.5 875 524.5 867 525.052 861.931C530.518 843.765 538.5 856.934 562 840.266Z" fill="#DD2300"/>
</svg>
