<svg width="1024" height="1024" viewBox="0 0 1024 1024" fill="none" xmlns="http://www.w3.org/2000/svg">
<g clip-path="url(#clip0_3_1546)">
<g filter="url(#filter0_d_3_1546)">
<path d="M432.976 1000.58C431.999 1009.78 427.908 1017.23 423.421 1024.64L314 1025L313.999 1025C311.69 1021.56 309.381 1018.13 307.037 1014.35C301.652 1005.73 301.442 996.369 302.23 987.158C302.883 979.536 304.995 972.039 306.716 964.238C306.994 963.8 307.016 963.612 307.207 963.194L307.744 962.402C310.371 958.529 312.877 954.835 315.648 951.007C315.981 950.505 316.152 950.251 316.694 950.035C323.626 943.398 331.838 939.794 341.057 939.781C357.363 939.76 373.753 939.661 389.943 941.262C398.061 942.065 405.816 946.537 413.936 949.63C414.136 949.909 414.05 949.964 414.066 949.916C415.307 950.681 416.532 951.494 417.91 952.586C422.335 958.022 426.606 963.179 430.902 968.684C435.586 979.146 434.745 989.644 432.976 1000.58Z" fill="#26783F"/>
<path d="M245.805 1020.7C246.134 1021.77 245.937 1023.01 246.459 1024.58L225 1025C220.26 1018.57 215.173 1013.86 205.904 1014.52C194.157 1015.37 182.284 1014.27 170.469 1014.37C154.428 1014.51 141.754 997.939 141.854 985.188C141.925 976.214 140.974 967.223 141.253 958.263C141.7 943.925 150.033 934.195 161.678 927.204C164.571 925.468 168.756 925.398 172.348 925.395C194.653 925.376 216.959 925.533 239.264 925.757C252.45 925.889 263.864 929.854 271.201 941.72C272.674 944.103 273.702 946.761 274.92 949.656C275.783 956.225 277.161 962.411 277.413 968.642C277.728 976.411 277.114 984.218 276.764 992.452C275.697 1006.17 266.457 1015.04 253.439 1015.17C252.446 1015.18 251.444 1015.34 250.461 1015.25C246.331 1014.9 244.457 1016.32 245.805 1020.7Z" fill="#0D7F99"/>
<path d="M22.9085 840.073C15.9263 839.817 6.92873 839.98 -0.531429 840.458L-1 743.999C15.2067 744.429 33.4134 744.859 49.8603 745.613C50.1004 745.938 50.0261 745.96 50.0215 745.922C52.6242 746.364 55.2315 746.844 58.012 747.633C58.1851 747.942 58.6054 747.955 58.8111 747.998C61.5779 749.165 64.139 750.287 66.8799 751.691C66.9966 751.874 67.0149 751.949 67.0144 751.971C67.3388 752.094 67.6604 752.246 68.0907 752.647C68.1523 752.788 68.1393 752.858 68.1163 752.881C69.0064 753.344 69.897 753.874 70.929 754.678L71.0368 754.745C71.4588 755.003 71.7156 755.161 71.9894 755.617C72.3739 756.038 72.673 756.235 73.0775 756.687L73.167 756.744C73.5372 756.983 73.7714 757.133 74.0077 757.568C74.3713 757.992 74.667 758.205 75.0518 758.683C75.1015 758.83 75.0929 758.898 75.0766 758.92C75.3582 759.072 75.6371 759.276 76.0007 759.717C76.0562 759.871 76.0499 759.937 76.0401 759.956C76.4569 760.314 76.8606 760.708 77.3616 761.373C77.4602 761.648 77.0535 761.646 77.257 761.633C78.0714 762.395 78.6824 763.17 79.4054 764.222C79.5175 764.499 79.4996 764.552 79.4821 764.574C80.0497 765.459 80.6348 766.322 81.2836 767.504C81.3232 767.702 81.2887 767.784 81.2638 767.804C81.6481 768.319 82.0049 768.894 82.4025 769.72C82.6317 770.398 82.819 770.816 83.0077 771.586C83.8367 780.204 84.7203 788.466 85.4475 796.742C85.6042 798.524 85.197 800.355 84.9461 802.572C84.8635 803.429 84.8844 803.879 84.8238 804.659C84.2788 807.751 83.8152 810.513 83.1542 813.583C79.8805 824.196 73.2323 831.801 64.7078 837.974C63.2357 839.039 61.6794 839.989 59.8435 841.062C59.6482 846.529 59.8808 851.928 59.8476 857.326C59.8315 859.927 59.4711 862.563 58.8692 865.088C58.7702 865.504 56.6153 865.429 55.2496 865.282C51.0198 861.157 46.9925 857.284 42.8707 853.515C38.6046 849.614 34.4241 845.581 29.8404 842.085C28.0421 840.714 25.2686 840.159 22.9085 840.073Z" fill="#0D7F99"/>
<path d="M34.0723 722.359C18.7325 720.359 4.59419 706.476 2.83774 691.52L2.61769 665.05C4.86629 647.756 17.6114 629.378 39.1924 628.885C51.3299 628.607 63.4866 628.476 75.6186 628.829C91.1094 629.279 104.59 640.839 108.998 657.181C113.595 674.222 112.03 690.894 104.4 706.75C102.523 710.65 99.1008 713.989 95.8327 716.977C93.4333 719.171 92.8818 721.18 93.0488 724.3C93.3693 730.29 92.9764 736.318 92.8795 742.33L91.0929 742.803C88.2971 740.56 85.4768 738.346 82.711 736.067C78.4734 732.574 74.4356 728.809 69.9835 725.62C67.9899 724.192 65.2235 723.274 62.7629 723.168C53.9507 722.788 45.1193 722.854 35.8985 722.552C35.1183 722.386 34.7348 722.419 34.0723 722.359Z" fill="#FBC628"/>
<path d="M0.432571 588.346C-0.0913301 588.352 -0.27352 588.481 -0.727855 589.273L-1 490.999C1.08042 490.664 5.16084 490.328 7.63688 490.066C22.0357 490.085 36.0389 490.031 50.5021 490.061C75.2839 489.286 96.4996 510.618 97.4944 535.36C98.3583 556.848 89.5129 572.203 71.5445 582.889C68.3143 584.81 64.638 586.48 60.9779 587.053C56.3301 587.78 55.5856 590.05 55.7221 594.124C55.8798 598.831 55.2846 603.563 55.0163 608.285L53.546 609.019C46.6826 603.133 39.841 597.221 32.9358 591.385C31.692 590.334 30.1862 589.593 28.4831 588.535C27.6642 588.432 27.1636 588.503 26.2869 588.507C25.4971 588.532 25.0834 588.625 24.3639 588.609C22.9426 588.555 21.827 588.612 20.3001 588.578C14.9451 588.522 10.0014 588.556 4.62966 588.442C3.72587 588.35 1.25007 588.409 0.432571 588.346Z" fill="#F96D32"/>
<path d="M4.47832 457.14C3.13812 457.181 0.258734 457.307 -0.810328 458.185L-1 362.999C21.8808 362.885 46.7616 362.7 69.6425 362.697C77.5211 362.696 84.5238 365.575 90.9745 370.577C91.0956 370.761 91.0892 370.871 91.0805 370.907C91.0816 370.905 91.0829 370.903 91.0844 370.9C92.4428 371.831 93.7617 372.83 95.2471 374.086C95.4135 374.342 95.5493 374.458 95.602 374.529C95.8979 374.663 96.0912 374.797 96.3069 375.167C96.3792 375.332 96.5381 375.44 96.5949 375.518L96.6547 375.593C97.4333 376.577 98.1604 377.496 98.9418 378.7C104.228 386.58 107.247 395.003 106.764 404.179C106.121 416.412 104.814 428.61 103.494 440.928L103.371 442.082C103.076 442.199 103.052 442.613 102.993 442.811C100.87 446.314 98.8068 449.618 96.4303 453.047C96.117 453.171 96.067 453.062 96.1184 453.093C91.885 455.464 87.5215 457.675 83.3599 460.217C81.9884 461.054 80.5143 462.604 80.1768 464.077C79.4061 467.442 79.3086 470.961 78.8183 474.763C78.7252 475.495 78.7513 475.88 78.6389 476.526C77.6461 478.814 78.6872 483.487 73.7425 479.838C73.5594 479.612 73.5483 479.515 73.5029 479.533C67.611 474.029 61.7644 468.508 55.7612 462.697C55.6045 462.409 55.9671 462.1 55.7765 462.243C54.7574 461.467 53.9289 460.548 53.0091 459.33C52.3448 458.634 51.7718 458.238 51.0644 457.616C43.2674 457.348 35.6047 457.306 27.4818 457.176C26.4616 457.17 25.9017 457.252 25.161 457.209C18.2999 457.131 11.6195 457.178 4.47832 457.14Z" fill="#26783F"/>
<path d="M36.8301 324.539C25.1801 324.424 11.5335 323.974 -0.557275 324.297L-1 231C17.1965 225.216 37.8913 226.879 56.4741 227.479C89.2265 228.538 101.119 254.891 100.243 282.364C100.096 286.996 99.4952 291.676 98.5141 296.205C95.8214 308.637 87.6925 316.537 76.2536 321.144C72.4393 322.681 71.0885 324.051 72.9042 328.318C75.4421 334.282 74.0683 341.041 69.6916 347.951C65.763 344.652 61.8332 341.492 58.0669 338.147C54.6131 335.08 51.1169 332.011 48.0418 328.582C44.9132 325.093 41.1664 324.582 36.8301 324.539Z" fill="#0D7F99"/>
<path d="M996.738 157.271C1003.26 146.956 1013.35 143.26 1024.6 140.447L1025 232C1021.53 231.078 1018.05 230.155 1014.28 229.008C1011.43 227.049 1008.87 225.315 1006.15 223.295C1005.06 222.202 1004.15 221.396 1003.11 220.302C1002 218.914 1001.01 217.814 999.943 216.4C999.866 216.087 999.966 216.043 999.936 216.089C988.119 201.084 987.006 173.013 996.738 157.271Z" fill="#26783F"/>
<path d="M986.204 255.912C998.853 255.574 1011.49 254.848 1024.57 253.675L1025 348.999C1018.85 348.676 1012.7 348.197 1006.55 348.136C1005 348.121 1003.17 349.133 1001.91 350.201C996.213 355.047 990.844 360.295 985.003 364.957C982.133 367.247 978.496 368.576 973.837 371.073L972.066 348.703C969.004 348.511 965.233 348.376 961.482 348.025C946.616 346.633 935.351 334.693 935.163 319.74C934.994 306.26 935.098 292.772 935.342 279.292C935.591 265.561 943.784 256.976 958.259 255.995C967.532 255.367 976.893 256.162 986.204 255.912Z" fill="#E63234"/>
<path d="M1000.75 388.806C1008.22 386.991 1016.29 387.656 1024.54 386.625L1025 488.999C1017.28 487.888 1009.35 487.568 1001.89 485.512C983.202 480.359 965.566 465.346 965.41 437.314C965.284 414.792 979.195 394.046 1000.75 388.806Z" fill="#0D7F99"/>
<path d="M982.174 509.162C996.134 508.667 1010.1 508.466 1024.53 507.6L1025 597.999C1006.74 598.709 1006.06 599.08 995.762 613.83C993.155 617.566 990.554 621.306 987.95 625.044L986.047 624.943C984.144 618.867 981.891 612.87 980.491 606.68C979.815 603.691 978.874 602.98 975.996 603.038C966.364 603.234 956.717 603.407 947.092 603.09C927.114 602.432 917.206 592.432 916.193 572.216C915.734 563.075 915.376 553.925 915.182 544.774C914.784 525.95 926.597 512.557 945.306 511.05C957.567 510.062 969.877 509.598 982.174 509.162Z" fill="#FBC628"/>
<path d="M985.517 635.083C1004.35 635.877 1017.6 644.071 1024.73 661.313L1025 705.999C1024.4 706.793 1023.8 707.587 1023.01 708.652C1022.65 709.47 1022.49 710.018 1022.12 710.776C1020.94 712.662 1019.96 714.338 1018.72 716.195C1018.46 716.375 1018.42 716.067 1018.42 716.222C1018.37 716.72 1018.2 716.998 1017.71 717.321C1017.49 717.431 1017.21 717.141 1017.33 717.302C1017.38 717.782 1017.21 718.036 1016.73 718.33C1016.52 718.433 1016.44 718.415 1016.44 718.458C1016.37 718.804 1016.21 719.049 1015.76 719.341C1015.56 719.443 1015.47 719.437 1015.47 719.483C1014.38 720.45 1013.28 721.371 1011.91 722.417C1011.63 722.542 1011.5 722.601 1011.44 722.645C1010.79 723.121 1010.2 723.554 1009.32 724.022C1009.04 724.057 1009.01 723.993 1009.04 724.02C1005.74 725.777 1002.41 727.505 999.642 728.947L1002.01 751.257C1000.23 749.635 999.587 749.051 998.857 748.212C998.588 747.892 998.407 747.827 998.058 747.527C996.016 746.067 994.142 744.842 992.091 743.335C991.912 743.053 991.979 743.014 991.974 743.052C990.961 742.41 989.955 741.729 988.772 740.803C988.596 740.557 988.603 740.472 988.561 740.461C988.228 740.399 987.986 740.261 987.686 739.853C987.579 739.67 987.48 739.574 987.419 739.542C985.642 738.224 983.925 736.939 982.044 735.366C981.881 735.078 981.965 735.028 981.947 735.074C980.3 734.044 978.67 732.969 976.857 731.633C976.673 731.372 976.787 731.267 976.77 731.343C970.685 731.215 964.618 731.001 958.55 730.814C949.481 730.534 940.315 730.812 931.844 725.767C931.704 725.36 931.786 725.202 931.74 725.282C930.908 725.165 930.203 724.809 929.314 724.216C929.13 723.978 929.034 724.007 929.021 723.959C927.967 723.239 926.926 722.568 925.743 721.618C925.6 721.34 925.738 721.3 925.702 721.362C924.852 720.813 924.038 720.202 923.077 719.319C922.013 718.264 921.096 717.482 920.059 716.419C919.532 715.754 919.125 715.371 918.607 714.723C918.496 714.458 918.443 714.282 918.488 714.362C917.535 713.175 916.537 711.907 915.441 710.353C904.419 691.341 904.144 672.161 914.172 653.239C919.268 643.622 927.658 637.56 939.2 636.912C941.885 636.762 944.517 635.676 947.59 635.083C960.355 635.1 972.704 635.055 985.517 635.083Z" fill="#0D7F99"/>
<path d="M1011.29 886.935C1015.6 886.947 1019.92 889.059 1024.62 889.634L1025 981C1020.85 980.993 1016.61 981.523 1012.56 980.864C1005.14 979.655 1000.91 983.613 996.875 988.84C992.323 994.74 987.431 1000.38 982.641 1006.09C981.913 1006.96 980.941 1007.63 978.844 1009.48L974.707 983.327C970.784 983.327 966.825 982.953 962.958 983.391C944.382 985.495 934.622 979.134 929.395 961.265C928.994 959.894 928.302 958.608 927.84 956.925C927.362 954.71 926.292 952.853 926.298 950.999C926.339 939.605 926.623 928.213 926.997 916.447C930.114 900.435 941.469 888.975 957.092 887.996C975.112 886.867 993.219 886.886 1011.29 886.935Z" fill="#F96D32"/>
<path d="M727.869 1020.89C728.233 1021.99 728.472 1023.14 729.353 1024.63L708 1025C704.843 1021.61 701.687 1018.21 698.292 1014.54C696.953 1014.35 695.851 1014.43 694.35 1014.4C693.526 1014.41 693.102 1014.52 692.35 1014.57C676.263 1017.27 661.321 1015.93 647.959 1005.49C647.792 1005.2 647.83 1005.1 647.852 1005.15C646.583 1004.05 645.294 1002.92 643.884 1001.47C643.81 1001.29 643.828 1001.2 643.852 1001.17C643.576 1001.01 643.299 1000.79 642.95 1000.31C642.872 1000.04 642.953 1000.05 642.939 1000.09C632.471 988.19 626.709 961.972 638.636 943.066C638.908 942.853 638.945 942.936 638.9 942.928C639.372 942.025 639.89 941.128 640.673 940.063C640.939 939.894 640.983 939.969 640.941 939.957C641.631 938.936 642.363 937.928 643.37 936.771C643.644 936.622 643.913 936.951 643.766 936.799C646.018 934.349 648.418 932.051 651.104 929.603C651.39 929.451 651.51 929.427 651.558 929.391C657.139 927.247 662.672 925.14 668.606 923.075C679.37 923.003 689.733 922.887 700.558 922.865C726.726 921.488 744.807 937.152 747.105 962.665C748.507 978.233 746.523 992.856 736.242 1005.39C735.098 1006.79 733.837 1008.53 732.276 1009.06C725.704 1011.26 726.18 1015.77 727.869 1020.89Z" fill="#26783F"/>
<path d="M190.22 882.236C190.192 882.579 190.003 882.898 189.814 883.218C189.265 883.381 189.206 883.222 189.206 883.222C189.176 883.564 188.979 883.878 188.782 884.193C188.229 884.361 188.176 884.192 188.176 884.192C188.151 884.531 187.951 884.848 187.751 885.165C187.194 885.333 187.154 885.163 187.154 885.163C186.426 886.066 185.526 886.945 184.626 887.823C184.02 888.041 184.003 887.996 184.003 887.996C183.171 888.703 182.397 889.674 181.406 890.014C178.088 891.153 177.364 893.224 178.733 896.276C178.717 900.831 178.951 904.655 178.747 908.456C178.579 911.589 177.209 912.906 173.475 912.289C166.328 911.107 162.55 905.911 159.369 900.664C156.139 895.336 152.934 892.652 146.157 892.543C133.169 892.334 120.353 890.201 108.859 883.184C95.9502 875.303 89.3667 864.124 88.73 848.863C87.9071 829.135 94.1614 812.998 110.389 801.203C112.359 800.275 113.664 799.47 114.969 798.665C115.604 798.519 115.644 798.552 115.644 798.552C116.138 798.213 116.579 797.876 117.021 797.539C117.591 797.44 117.684 797.462 117.684 797.462C129.629 790.807 142.686 790.93 155.693 791.525C161.068 791.771 166.383 793.327 171.725 794.287C172.103 794.938 172.025 794.964 172.025 794.964C179.635 795.327 185.628 799.191 191.16 804.02C191.415 804.632 191.268 804.652 191.268 804.652C191.826 804.85 192.291 805.165 192.757 805.48C192.982 806.011 193.001 805.999 193.001 805.999C196.209 811.54 201.084 816.713 202.337 822.651C205.918 839.619 205.871 856.685 197.683 872.765C197.089 873.136 197.059 873.048 197.059 873.048C197.032 873.393 196.912 873.746 196.793 874.1C196.279 874.337 196.31 874.18 196.31 874.18C195.51 875.788 194.586 877.294 193.663 878.8C193.086 879.142 193.061 879.049 193.061 879.049C192.4 880.076 191.642 881.106 190.885 882.136C190.287 882.384 190.22 882.236 190.22 882.236Z" fill="#E63234"/>
<path d="M589.149 698.198C589.076 698.502 588.87 698.794 588.665 699.086C588.125 699.215 588.093 699.107 588.093 699.107C588.006 699.422 587.806 699.729 587.606 700.036C587.016 700.579 586.827 700.811 586.519 700.945C585.542 701.485 585.021 701.949 584.5 702.414C583.855 702.638 583.734 702.767 583.613 702.895C582.859 704.899 582.277 706.781 582.433 708.6C582.85 713.436 583.585 718.244 584.193 723.064L582.829 723.986L570.275 717.661C569.873 717.113 569.998 717.048 569.998 717.048C566.941 715.684 563.616 714.682 561.112 712.661C556.61 709.029 551.64 708.605 546.226 708.665C537.124 708.765 528.006 708.696 518.92 708.219C515.723 708.051 512.6 706.475 509.443 705.543C508.923 705.06 508.981 705.004 508.981 705.004C504.052 701.939 499.138 698.794 494.225 695.65L494.211 695.641C493.554 695.003 493.298 694.846 493.113 694.574C490.888 691.732 488.835 689.318 486.782 686.905C486.664 686.224 486.763 686.145 486.763 686.145C486.497 686.029 486.211 685.788 485.924 685.547C485.816 684.973 485.448 684.705 485.448 684.705C477.687 669.792 477.637 654.879 482.749 639.667C488.828 621.735 502.377 611.719 521.078 610.898C522.266 610.894 522.588 610.81 522.91 610.726C523.871 610.815 524.536 610.712 525.2 610.61C540.031 610.653 554.191 610.612 568.351 610.571C585.341 614.31 596.66 624.273 602.702 639.229C610.295 658.024 609.205 676.343 595.345 692.532C594.529 693.416 594.222 693.842 593.914 694.269C593.392 694.421 593.22 694.459 593.22 694.459C593.202 694.656 593.027 694.933 592.852 695.21C592.373 695.372 592.167 695.04 592.167 695.04C592.098 695.797 591.788 696.247 591.479 696.698C590.949 696.885 590.964 696.964 590.964 696.964C590.514 697.363 590.143 697.779 589.771 698.195L589.771 698.196C589.205 698.318 589.149 698.198 589.149 698.198Z" fill="#F96D32"/>
<path d="M896.208 875.142C896.423 875.644 896.297 875.718 896.297 875.718C896.632 875.784 896.926 875.991 897.221 876.198C897.391 876.727 897.229 876.764 897.229 876.764C897.899 877.145 898.512 877.683 899.126 878.221C899.326 878.815 899.161 878.863 899.161 878.863C899.463 878.915 899.753 879.138 900.044 879.361C900.215 879.904 900.106 879.91 900.106 879.91C900.537 880.226 900.934 880.645 901.331 881.064L901.332 881.065C901.512 881.633 901.399 881.754 901.399 881.754C901.626 881.834 901.891 882.075 902.156 882.316C902.29 882.858 902.161 882.872 902.161 882.872C902.585 883.192 902.964 883.634 903.343 884.076C903.502 884.653 903.131 884.885 903.131 884.885C904.296 885.855 905.116 887.095 905.936 888.335C906.003 888.99 906.214 889.152 906.214 889.152C906.96 890.999 908.158 892.506 908.556 894.201C911.799 908.018 913.191 921.879 908.796 935.754C908.25 936.247 908.254 936.105 908.254 936.105C908.2 936.755 908.019 937.341 907.839 937.927C907.352 938.302 907.3 938.173 907.3 938.173C906.861 939.424 906.29 940.63 905.719 941.836C905.161 942.215 905.125 942.089 905.125 942.089C905.124 942.443 904.991 942.79 904.859 943.136C904.358 943.399 904.383 943.242 904.383 943.242C903.993 944.243 903.491 945.13 902.989 946.018C902.504 946.392 902.453 946.417 902.453 946.417C901.87 947.239 901.266 948.112 900.661 948.986C895.642 955.206 889.797 958.906 882.13 960.194C883.912 968.778 884.979 977.168 882.54 986.967C875.375 981.942 868.785 977.91 862.938 972.996C859.529 970.132 857.308 965.855 854.553 962.214C842.807 961.781 831.684 961.653 820.562 961.525C807.953 958.262 799.959 950.493 795.668 939.491C788.871 922.066 789.599 904.379 796.518 887.053C797.782 883.888 800.163 881.168 802.028 878.243C803.474 876.959 804.346 875.982 805.219 875.006C805.824 874.759 805.875 874.873 805.875 874.873C805.968 874.587 806.186 874.298 806.404 874.009C806.937 873.843 806.939 873.93 806.939 873.93C808.239 872.838 809.623 871.77 811.007 870.703L811.013 870.699C811.645 870.503 811.757 870.6 811.757 870.6C811.861 870.385 812.11 870.141 812.359 869.896L812.359 869.896C812.901 869.801 812.917 869.893 812.917 869.893C818.592 868.01 824.264 865.002 830.138 864.533C843.717 863.447 857.422 862.947 871.018 863.535C877.013 863.794 882.869 867.277 888.788 869.296C889.185 869.864 889.086 869.894 889.086 869.894C890.013 870.326 890.901 870.855 891.79 871.383C892.113 871.922 892.037 871.966 892.037 871.966C892.378 872.042 892.703 872.204 893.028 872.366C893.239 872.882 893.089 872.896 893.089 872.896C893.783 873.207 894.452 873.667 895.121 874.126C895.401 874.675 895.26 874.748 895.26 874.748C895.595 874.775 895.902 874.958 896.208 875.142Z" fill="#0D7F99"/>
<path d="M590.36 262.06C590.967 261.611 591.161 261.296 591.354 260.98C591.885 260.778 591.904 260.912 591.904 260.912C591.98 260.59 592.19 260.285 592.4 259.981C592.932 259.42 593.089 259.182 593.382 259.033C594.031 258.664 594.245 258.383 594.459 258.103C594.968 257.926 594.993 257.994 594.993 257.994C602.407 250.926 611.44 247.437 621.537 247.216C636.001 246.898 650.501 246.584 664.936 247.295C670.961 247.592 676.857 250.528 682.812 252.264C683.144 252.894 683.059 252.918 683.059 252.918C685.65 254.321 688.226 255.811 690.802 257.302L690.803 257.303C691.168 257.873 691.064 257.944 691.064 257.944C692.758 259.309 694.399 260.788 696.041 262.267L696.043 262.27C696.634 262.917 696.861 263.081 696.991 263.378C710.606 279.124 713.266 302.869 703.47 320.761C702.925 321.757 702.56 322.851 702.11 323.9C701.697 324.393 701.623 324.505 701.623 324.505C700.95 325.696 700.306 326.756 699.662 327.816L699.66 327.82C699.128 328.169 699.064 328.071 699.064 328.071C697.407 330.414 695.641 332.717 693.874 335.019C693.281 335.308 693.22 335.202 693.22 335.202C693.159 335.532 692.979 335.838 692.798 336.145C692.3 336.361 692.253 336.011 692.253 336.011C691.936 336.786 691.551 337.212 691.165 337.639C690.296 338.279 689.941 338.64 689.585 339.001C689.086 339.12 689.025 339.012 689.025 339.012C685.628 341.291 682.138 343.489 678.648 345.688L678.643 345.691C678.005 346.009 678 345.999 678 345.999C678.143 352.43 678.278 358.856 678.412 365.282C678.046 366.343 678.086 366.676 678.055 367.002C677.934 368.31 677.79 369.616 677.531 372.117C674.408 369.75 671.502 368.047 669.238 365.719C665.378 361.749 662.115 357.194 658.218 353.266C656.091 351.122 653.176 349.761 650.616 348.048C639.598 347.515 629.23 347.316 618.863 347.118C607.317 346.711 598.528 341.886 590.348 335.573C590.018 334.991 590 335.001 590 335.001C588.361 333.238 586.715 331.493 585.068 329.749L585.05 329.73C584.831 329.102 584.925 329.073 584.925 329.073C584.157 328.095 583.422 327.025 582.687 325.954C582.504 325.321 582.584 325.221 582.584 325.221C574.602 311.02 573.678 296.122 579.015 280.721C580.349 277.762 581.327 275.492 582.305 273.223L582.307 273.217C582.85 272.812 582.892 272.912 582.892 272.912C582.986 272.347 583.188 271.778 583.391 271.209C583.874 270.835 583.945 270.93 583.945 270.93C584.327 269.979 584.82 269.067 585.314 268.154L585.315 268.153C585.85 267.813 585.929 267.925 585.929 267.925C586.654 266.64 587.503 265.416 588.351 264.192C588.912 263.873 588.947 263.952 588.947 263.952C589.043 263.629 589.225 263.312 589.407 262.996C589.952 262.472 590.096 262.231 590.36 262.06Z" fill="#26783F"/>
<path d="M158.515 96.5282C158.195 95.9376 157.845 95.65 157.845 95.65C157.733 95.2114 157.808 95.1205 157.808 95.1205C157.551 95.0456 157.232 94.8701 156.912 94.6945C156.771 94.1447 156.88 94.1144 156.88 94.1144C156.546 94.0473 156.229 93.8685 155.912 93.6898C155.771 93.141 155.874 93.0886 155.874 93.0886C155.571 93.0093 155.252 92.8155 154.934 92.6217C154.188 91.5709 153.671 91.0557 153.154 90.5405C153.036 89.9996 152.841 89.802 152.841 89.802C152.604 89.229 152.327 88.931 152.05 88.6331C150.292 79.9497 148.69 71.8605 147.089 63.7718C147.121 61.5645 147.055 60.2254 146.99 58.8864C147.031 57.6074 146.979 57.1262 146.927 56.6451C147.042 48.612 147.033 41.2964 147.023 33.9808C152.799 14.6951 161.974 8.92314 181.917 10.1234C206.837 11.6232 231.789 13.4971 256.727 13.5011C276.41 13.5043 288.494 23.9797 291.535 43.9543C294.827 65.5756 286.871 86.2475 265.035 95.8586C253.89 100.764 241.707 100.809 229.689 100.574C220.196 100.388 210.707 99.9648 201.214 99.7726C199.793 99.7438 198.358 100.404 196.93 100.745C188.796 109.598 181.493 118.167 173.956 126.526C172.475 128.168 170.092 128.998 167.37 130.664C167.37 122.926 166.942 116.488 167.476 110.13C168.177 101.792 168.502 101.821 161.124 97.9615C160.245 97.5015 159.384 97.0068 158.515 96.5282Z" fill="#F96D32"/>
<path d="M682.535 635.452C682.186 635.418 681.972 635.293 681.804 635.091C681.609 634.77 681.37 634.646 681.37 634.646C681.017 634.346 680.842 634.219 680.713 634.03C680.581 633.728 680.462 633.624 680.462 633.624C679.912 633.219 679.492 632.9 679.072 632.582C678.879 632.084 678.976 632.025 678.976 632.025C678.34 631.598 677.765 631.076 677.19 630.553C677.027 629.983 676.997 629.996 676.997 629.996C676.07 628.851 675.121 627.732 674.172 626.614C673.994 626.002 674 625.999 674 625.999C673.628 625.562 673.26 625.118 672.892 624.674C672.802 624.087 672.894 624.085 672.894 624.085C670.365 616.697 666.864 609.389 665.604 601.714C663.377 588.152 664.835 574.824 673.042 563.039C673.569 562.639 673.887 562.886 673.887 562.886C673.81 562.153 674.076 561.63 674.342 561.106C674.871 560.831 674.936 560.918 674.936 560.918C675.57 559.906 676.31 558.916 677.051 557.926L677.053 557.923C677.599 557.629 677.835 557.63 677.835 557.63C677.795 557.389 677.985 557.096 678.175 556.802C678.67 556.6 678.63 556.841 678.63 556.841C679.498 555.739 680.383 554.88 681.267 554.022L681.268 554.02C681.865 553.824 681.974 553.953 681.974 553.953C683.648 552.575 685.462 551.292 687.276 550.009C687.955 549.923 687.976 550.001 687.976 550.001C693.437 548.383 698.88 545.935 704.493 545.45C714.698 544.569 725.005 544.853 735.269 544.651C754.369 544.732 767.923 553.66 775.217 570.423C780.413 582.361 781.949 594.871 780.159 607.525C778.008 622.727 768.919 633.463 755.739 640.909C754.867 647.475 754.716 653.892 754.455 660.305C754.382 662.102 753.982 663.885 753.733 665.675C745.723 659.131 738.461 652.449 731.199 645.766C730.646 644.963 730.352 644.767 730.058 644.571C729.85 644.072 729.937 644.058 729.937 644.058C721.363 644.077 712.806 644.237 704.273 643.848C700.246 643.664 696.266 642.426 692.265 641.665C691.782 641.076 691.335 641.052 691.335 641.052C689.643 640.207 688.333 639.593 687.024 638.979C686.624 638.511 686.804 638.235 686.804 638.235C685.355 637.668 684.131 636.861 682.907 636.054C682.551 635.542 682.535 635.452 682.535 635.452Z" fill="#0D7F99"/>
<path d="M524.001 807.999C523.731 808.481 523.369 808.877 523.008 809.273C522.338 809.458 522.153 809.392 521.968 809.326C522.19 809.95 521.864 810.353 521.538 810.756C521.024 810.866 520.868 811.12 520.868 811.12C518.331 812.515 516.09 813.919 513.85 815.324L513.848 815.325C512.917 818.986 512.688 822.476 512.507 825.968C512.283 830.287 512.101 834.608 511.9 838.928L509.633 839.785C505.015 834.913 500.121 830.268 495.849 825.109C490.507 818.658 484.123 816.172 475.746 816.775C468.992 817.262 462.082 816.733 455.335 815.899C443.37 814.419 434.031 808.014 427.949 797.872C416.357 778.543 416.858 758.479 427.198 738.917C432.794 728.328 442.427 721.547 454.104 719.036C472.926 714.99 491.756 716.882 510.418 720.906C511.743 721.532 512.381 721.77 513.019 722.007C513.375 722.381 513.194 722.55 513.194 722.55C514.192 722.757 514.97 723.075 515.746 723.393C516.131 723.901 516.052 723.946 516.052 723.946C516.404 723.97 516.746 724.083 517.087 724.197C517.357 724.674 517.206 724.708 517.206 724.708C517.798 724.831 518.327 725.096 518.855 725.36C519.166 725.869 519.053 725.941 519.053 725.941C519.775 726.217 520.43 726.608 521.085 727C521.415 727.475 521.106 727.674 521.106 727.674C522.014 727.95 522.589 728.38 523.163 728.81C523.471 729.255 523.608 729.396 523.608 729.396C523.944 729.62 524.132 729.747 524.271 729.945C524.416 730.259 524.568 730.36 524.568 730.36L525.891 731.459C526.069 731.948 526.001 731.994 526.001 731.994C526.454 732.291 526.858 732.654 527.261 733.016C527.507 733.513 527.467 733.519 527.467 733.519C528.651 735.137 529.832 736.716 531.013 738.294C531.098 738.973 531.022 738.968 531.022 738.968C533.149 743.874 536.807 748.781 537.02 753.833C537.539 766.153 536.499 778.542 535.97 790.898C535.917 792.149 535.07 793.365 534.591 794.597C534.065 795.094 534.013 795.027 534.013 795.027C534.017 795.383 533.938 795.724 533.859 796.065C533.419 796.364 533.387 796.198 533.387 796.198C533.173 797.098 532.846 797.871 532.52 798.645C532.009 799.022 531.996 799 531.996 799C531.875 799.321 531.729 799.638 531.583 799.956C531.099 800.191 531.087 800.091 531.087 800.091C530.749 800.771 530.313 801.427 529.878 802.083C529.34 802.35 529.256 802.232 529.256 802.232C529.115 802.743 528.831 803.244 528.546 803.745C527.978 804.34 527.821 804.622 527.548 804.838C526.913 805.327 526.732 805.624 526.551 805.921C526.046 806.1 526.021 806.02 526.021 806.02C525.608 806.665 525.121 807.271 524.634 807.877L524.633 807.878C524.085 808.092 524.001 807.999 524.001 807.999Z" fill="#0D7F99"/>
<path d="M529.437 379.11C530.101 378.683 530.292 378.402 530.484 378.12C530.985 377.968 531 378.001 531 378.001C531.345 377.564 531.721 377.146 532.097 376.729C532.63 376.52 532.741 376.635 532.741 376.635C532.794 376.365 533.006 376.08 533.219 375.794C533.742 375.623 533.774 375.773 533.774 375.773C534.87 374.766 536.077 373.865 537.283 372.965C537.935 372.836 537.931 372.925 537.931 372.925C538.37 372.486 538.893 372.078 539.416 371.67C549.527 365.935 560.109 364.129 571.037 363.808C580.52 363.53 590.009 363.459 599.49 363.155C631.157 362.138 656.895 391.667 650.643 424.914C648.635 435.592 642.867 445.153 634.301 452.345C631.465 454.726 630.69 457.032 631.221 460.484C631.991 465.49 632.348 470.56 632.881 475.603L631.571 476.678L610.501 464.983C608.652 463.583 607.316 462.713 605.98 461.843C605.745 461.467 605.769 461.351 605.799 461.315C605.649 461.395 605.287 461.32 605.287 461.32C604.249 460.982 603.48 460.957 602.71 460.933C585.438 461.53 568.915 462.846 552.501 459.643C543.43 457.577 536.64 452.904 530.321 447.371C529.48 446.315 528.943 445.879 528.406 445.444C528.203 444.956 528.036 444.959 528.036 444.959C527.074 443.74 526.099 442.689 525.125 441.637C524.933 441.043 525 441.006 525 441.006C524.555 440.649 524.158 440.232 523.76 439.815C523.592 439.247 523.728 439.224 523.728 439.224C522.795 438.115 521.938 436.892 521.081 435.668C520.995 435.015 520.998 435.002 520.998 435.002C513.163 420.666 514.185 406.219 520.449 391.718C520.97 390.511 521.691 389.391 522.319 388.231C522.891 387.838 522.924 387.936 522.924 387.936C522.945 387.592 523.068 387.243 523.192 386.894C523.685 386.626 523.703 386.802 523.703 386.802C523.817 386.195 524.091 385.664 524.365 385.133C524.894 384.842 524.921 384.935 524.921 384.935C525.264 384.247 525.704 383.561 526.144 382.874C526.709 382.615 526.773 382.773 526.773 382.773C526.762 382.433 526.92 382.12 527.077 381.807C527.553 381.565 527.542 381.838 527.542 381.838C527.818 381.111 528.143 380.654 528.468 380.196C528.991 379.595 529.142 379.314 529.437 379.11Z" fill="#0D7F99"/>
<path d="M904.739 475.198C904.481 475.141 904.148 474.972 903.816 474.802C903.666 474.244 903.827 474.22 903.827 474.22C903.275 474.089 902.777 473.804 902.278 473.52C902.001 472.997 902 472.999 902 472.999C900.807 472.164 899.611 471.33 898.415 470.496C898.077 469.965 898.017 469.998 898.017 469.998C893.498 465.827 888.253 465.684 882.353 465.892C871.514 466.273 860.633 465.459 849.77 465.143C826.066 459.867 809.149 435.688 811.4 411.373C812.521 399.258 816.396 388.344 824.856 379.434C830.495 373.496 837.364 369.629 845.702 368.82C848.398 368.599 850.327 367.959 852.261 367.944C871.146 367.805 890.031 367.75 908.916 367.738C910.884 367.737 912.851 368.176 914.819 368.41C925.478 369.433 932.696 374.861 938.513 382.179C946.468 392.187 949.815 403.82 949.21 416.602C949.1 418.922 949.317 421.257 949.312 423.584C949.278 442.592 939.85 455.846 923.986 465.297C922.631 466.105 921.334 468.206 921.263 469.763C920.962 476.345 921.135 482.95 921.135 490.801L915.181 485.843C914.318 484.695 913.698 484.176 913.078 483.657C912.849 483.09 912.937 483.062 912.937 483.062C912.293 482.659 911.676 482.166 911.059 481.674C910.805 481.127 910.897 481.104 910.897 481.104C910.214 480.757 909.549 480.318 908.885 479.878C908.671 479.305 908.907 478.987 908.907 478.987C907.427 478.182 906.162 477.045 904.897 475.909C904.667 475.312 904.739 475.198 904.739 475.198Z" fill="#F96D32"/>
<path d="M329.005 835.001C329.465 835.317 329.908 835.69 330.352 836.062C330.434 836.643 330.306 836.728 330.306 836.728C330.824 836.86 331.318 837.143 331.811 837.427C332.068 837.969 332.004 837.992 332.004 837.992C332.432 838.371 332.833 838.811 333.235 839.252C333.304 839.861 333.165 839.823 333.165 839.823C333.816 840.265 334.374 840.818 334.933 841.371C335.095 841.955 335.018 841.977 335.018 841.977C335.675 842.734 336.3 843.565 336.924 844.395C337.023 845.022 337.191 845.188 337.191 845.188C338.377 848.214 340.281 850.913 340.866 853.872C343.087 865.108 342.404 876.307 339.324 887.347C338.935 888.167 338.93 888.36 338.924 888.554C338.351 889.726 338.039 890.379 337.726 891.032C337.41 891.16 337.294 891.164 337.251 891.147C337.324 891.269 337.307 891.652 337.307 891.652C332.709 901.263 325.708 907.929 316.984 912.956C316.326 913.335 315.761 913.876 315.153 914.342C315.568 917.737 316.168 920.457 316.768 923.177C316.707 924.443 316.765 924.932 316.824 925.42C315.164 931.319 312.095 928.36 309.455 927.559C308.994 927.001 309 927 309 927C307.787 926.542 306.574 926.08 305.36 925.618L305.295 925.593C304.876 925.077 304.962 925.06 304.962 925.06C301.7 923.65 298.472 922.158 295.243 920.666C294.84 920.109 294.932 920.107 294.932 920.107C293.993 919.671 293.094 919.152 292.194 918.634L292.192 918.633C291.858 918.097 291.942 918.062 291.942 918.062C291.637 917.965 291.32 917.779 291.004 917.592C290.826 917.055 290.943 917.086 290.943 917.086C287.365 916.598 283.862 915.739 280.313 915.456C268.958 914.55 257.554 914.145 246.239 912.908C242.827 912.535 239.643 910.083 236.355 908.584C235.966 908.028 236.01 908.045 236.01 908.045C235.649 907.919 235.327 907.766 235.004 907.613C234.8 907.102 234.905 907.123 234.905 907.123C232.858 905.471 230.868 903.729 228.879 901.986C228.641 901.381 228.94 901.08 228.94 901.08C221.144 895.319 217.718 887.4 216.429 877.93C214.557 864.181 215.537 851.14 222.854 839.035C223.877 837.343 225.141 835.796 226.293 834.181C226.876 833.842 226.941 833.954 226.941 833.954C231.219 827.857 237.265 824.296 244.271 822.164C252.26 821.555 259.509 820.545 266.772 820.433C277.083 820.273 287.406 820.684 297.719 821.021C306.049 821.292 313.72 823.84 320.718 828.381C321.101 828.951 321.024 828.97 321.024 828.97C323.597 830.732 326.147 832.569 328.697 834.407L328.702 834.41C329.058 834.977 329.005 835.001 329.005 835.001Z" fill="#F96D32"/>
<path d="M470.334 576.528C470.042 576.32 469.882 576.206 469.763 576.035C469.638 575.749 469.431 575.64 469.431 575.64C468.802 575.043 468.309 574.635 467.816 574.228C467.563 573.818 467.373 573.702 467.373 573.702C461.783 573.325 456.346 573.111 450.908 572.897C441.591 572.528 433.195 572.331 424.8 572.133L424.79 572.133C423.498 571.62 422.967 571.465 422.435 571.31C411.243 566.821 405.066 558.064 402.38 547.815C398.315 532.297 396.793 516.328 402.73 500.661C403.068 499.83 403.07 499.652 403.072 499.474C408.42 485.74 418.015 478.945 432.277 478.924C451.216 478.896 470.155 479.006 489.093 478.856C497.55 478.789 504.615 481.828 510.829 487.295C511.137 487.895 511.031 487.971 511.031 487.971C512.721 489.661 514.34 491.46 515.959 493.26L515.96 493.26C516.139 493.905 516.029 493.952 516.029 493.952C521.323 500.528 523.455 508.37 523.794 516.568C524.136 524.853 523.76 533.179 523.452 541.478C523.102 550.919 517.992 557.962 511.415 564.166C510.884 564.47 510.71 564.749 510.71 564.749C504.723 568.167 499.043 571.464 493.209 574.849L494.181 595.939L489.126 593.051C488.632 592.69 488.482 592.616 488.482 592.616C486.58 591.26 484.82 589.99 483.06 588.721L483.04 588.707C480.218 585.959 477.719 583.802 475.22 581.646C474.943 581.042 474.999 581 474.999 581C474.362 580.563 473.767 580.07 473.171 579.576C472.952 579.029 473.001 579 473.001 579C472.255 578.423 471.541 577.8 470.827 577.176C470.528 576.69 470.374 576.557 470.374 576.557L470.334 576.528Z" fill="#26783F"/>
<path d="M202.085 291.95C202.518 292.264 202.903 292.697 203.287 293.13C203.407 293.712 203.216 293.626 203.216 293.626C204.056 294.454 204.689 295.246 205.322 296.038C205.434 296.652 205.01 296.768 205.01 296.768C213.569 307.996 213.596 320.879 212.521 333.945C212.345 336.083 211.715 338.184 211.295 340.302C209.254 351.767 204.464 361.065 197.742 369.557C196.279 371.405 195.277 374.073 195.139 376.427C194.782 382.523 195.068 388.655 194.986 394.771C194.972 395.838 194.414 396.897 194.004 398.319C192.806 397.753 191.815 397.528 191.156 396.936C184.495 390.949 178.024 384.739 171.162 378.995C169.591 377.68 166.723 377.506 164.454 377.51C157.827 377.523 151.18 378.337 144.579 378.024C132.205 377.439 122.313 371.899 115.18 361.652C109.828 353.344 107.305 344.722 106.836 335.646C106.357 326.366 106.03 316.995 106.783 307.758C107.573 298.077 112.854 290.307 120.238 284.038C120.876 283.823 120.923 283.904 120.923 283.904C121.041 283.642 121.252 283.362 121.462 283.083C121.982 282.947 121.994 283.003 121.994 283.003C122.997 282.221 124.046 281.473 125.095 280.724C125.74 280.605 125.943 280.662 125.943 280.662C126.893 280.055 128.055 279.451 129.216 278.848C129.916 278.789 129.932 278.889 129.932 278.889C133.604 277.993 137.391 276.318 141.146 276.387C153.217 276.609 165.395 276.664 177.294 278.408C184.039 279.396 190.318 283.561 196.806 286.294C197.15 286.881 197.035 286.938 197.035 286.938C198.729 288.305 200.347 289.775 201.964 291.246C202.187 291.871 202.085 291.95 202.085 291.95Z" fill="#F96D32"/>
<path d="M245.276 700.93C245.518 701.529 245.497 701.563 245.497 701.563C245.68 701.857 245.895 702.126 246.109 702.394C246.176 702.922 246.085 702.92 246.085 702.92C253.519 714.685 253.052 727.805 251.422 740.782C250.644 746.971 247.682 752.885 245.71 758.923C245.072 759.198 245.036 759.619 245.036 759.619C242.536 762.636 240.216 765.272 237.897 767.907L237.894 767.91C233.359 770.835 229.44 773.543 225.797 776.061L225.796 776.062L228.196 798.844L222.286 795.657C221.873 795.095 221.918 795.022 221.918 795.022C218.075 791.923 214.212 788.74 210.349 785.556C209.604 785.038 209.316 784.902 209.106 784.599C208.643 783.936 208.323 783.75 208.004 783.564C207.413 783.121 207.17 783.017 206.99 782.768C205.233 780.89 203.581 779.412 201.93 777.934C201.622 777.36 201.913 777.113 201.913 777.113C200.814 776.814 199.975 776.236 199.135 775.658C198.801 775.138 198.924 775.1 198.924 775.1L197.645 775.101C188.094 775.107 178.537 775.113 168.992 774.791C164.901 774.653 160.836 773.742 156.76 773.183C150.675 770.274 145.344 767.652 140.013 765.029C139.596 764.533 139.565 764.446 139.565 764.446C118.278 746.405 115.307 714.664 132.876 693.939C133.387 693.562 133.485 693.494 133.485 693.494C141.664 683.935 152.224 679.243 164.424 679.127C179.767 678.982 195.119 679.484 210.461 679.985L213.162 680.073C216.383 680.178 219.565 681.498 222.765 682.258C223.132 682.904 223.049 682.932 223.049 682.932C226.297 684.348 229.533 685.851 232.769 687.354C233.116 687.921 233.04 687.957 233.04 687.957C233.365 688.036 233.681 688.2 233.998 688.363C234.246 688.849 234.144 688.868 234.144 688.868C236.786 691.246 239.392 693.72 241.997 696.195C242.221 696.829 242.091 696.924 242.091 696.924C243.207 698.167 244.242 699.549 245.276 700.93Z" fill="#26783F"/>
<path d="M319.999 553.997C319.684 553.869 319.388 553.699 319.091 553.53C318.879 553.048 318.964 553.039 318.964 553.039C317.6 552.045 316.276 550.975 314.952 549.906L314.952 549.905C314.676 549.332 314.742 549.227 314.742 549.227C306.569 549.107 298.325 549.128 290.122 548.561C283.936 548.133 277.803 546.954 271.646 546.109C263.052 541.065 257.942 533.927 256.497 525.185C253.742 508.521 253.882 491.744 258.768 475.353C259.646 472.409 261.604 469.787 263.063 467.016C263.627 466.672 263.881 466.768 263.881 466.768C264.56 465.606 265.507 464.485 266.455 463.363C275.812 455.543 286.293 454.226 297.351 454.474C313.63 454.838 329.916 454.956 346.199 455.059C356.508 455.125 365.413 458.291 372.419 466.113C376.712 470.905 378.855 476.51 378.902 482.919C378.957 490.396 378.973 497.872 379.005 505.348C378.825 506.527 378.881 506.915 378.937 507.304C378.712 515.166 379.043 522.486 378.527 529.746C377.808 539.861 368.915 548.075 358.263 549.091C353.845 549.513 349.41 549.763 344.751 550.109C344.751 555.279 345.024 560.061 344.681 564.798C344.267 570.518 342.732 571.097 337.948 567.896C337.758 567.498 337.726 567.399 337.728 567.381C336.71 566.91 335.839 566.378 334.968 565.845L334.967 565.845C334.692 565.278 334.912 565.161 334.912 565.161C332.166 563.51 329.607 561.693 327.047 559.877C326.68 559.336 326.793 559.259 326.793 559.259C326.232 559.144 325.685 558.893 325.139 558.643C324.856 558.101 324.96 558.055 324.96 558.055C323.362 556.964 321.825 555.777 320.287 554.59C319.964 554.026 319.999 553.997 319.999 553.997Z" fill="#E63234"/>
<path d="M619.463 675.551C620.386 674.039 621.35 672.605 622.313 671.171C622.876 670.82 622.916 670.916 622.916 670.916C623.977 669.579 625.136 668.274 626.295 666.97C626.915 666.367 627.074 666.128 627.381 665.987C629.501 664.818 631.175 663.707 632.848 662.597C633.482 662.4 633.625 662.408 633.625 662.408C638.264 661.385 642.775 659.551 647.385 659.255C655.918 658.707 664.509 659.059 673.076 659.037C674.167 659.136 674.332 659.078 674.498 659.019C678.398 659.027 681.793 658.896 685.187 658.765C695.086 659.161 704.164 659.283 713.235 659.602C724.148 659.986 730.22 666.687 733.951 676.096C734.977 678.683 735.419 681.502 736.128 684.214C736.249 699.378 736.791 713.75 736.541 728.109C736.473 731.999 734.006 735.847 732.641 739.715C732.095 740.156 732.075 740.069 732.075 740.069C731.278 741.379 730.393 742.672 729.509 743.964C723.246 751.751 714.732 752.84 706.431 754.205L707.481 775.48C695.253 770.191 686.597 761.47 677.267 753.709C667.57 753.059 658.186 753.021 648.802 752.912C643.069 752.846 637.166 753.62 632.078 749.914C631.631 749.387 631.737 749.464 631.737 749.464C629.112 747.188 626.615 744.942 624.117 742.696C623.899 742.06 623.984 742.023 623.984 742.023C616.68 732.112 614.976 720.602 614.778 708.68C614.561 697.143 613.753 686.249 618.943 676.1C619.397 675.608 619.463 675.551 619.463 675.551Z" fill="#26783F"/>
<path d="M795.342 499.063C795.957 498.601 796.158 498.298 796.359 497.994C796.882 497.805 796.938 497.884 796.938 497.884C798.349 496.643 799.856 495.403 801.363 494.162C801.999 494.001 802 493.999 802 493.999C802.45 493.637 802.896 493.276 803.342 492.914C803.921 492.811 803.918 492.906 803.918 492.906C806.888 491.273 809.78 488.915 813.031 488.207C831.319 484.224 849.687 482.612 867.784 489.179C870.993 490.343 873.823 492.553 876.828 494.28C877.173 494.868 877.066 494.931 877.066 494.931C880.07 497.641 883.018 500.463 885.966 503.284C886.562 503.961 886.801 504.141 886.939 504.453C888.37 506.68 889.708 508.452 891.046 510.224C891.161 510.897 891.06 510.933 891.06 510.933C891.514 511.384 891.914 511.928 892.315 512.472C892.524 513.139 892.352 513.095 892.352 513.095C892.932 513.916 893.361 514.642 893.79 515.367C894.857 521.713 895.912 527.415 896.967 533.117C897.871 551.685 893.013 566.777 878 577.562C877.132 578.186 876.775 580.064 876.825 581.333C877.052 587.126 877.941 592.923 877.753 598.691C877.595 603.542 876.117 604.002 871.719 601.888C863.84 598.1 858.172 591.842 853.2 584.945C851.092 582.021 848.84 582.022 845.572 582.217C836.367 582.765 826.749 584.301 817.971 582.371C801.385 578.726 791.13 567.303 787.065 550.64C782.307 532.776 782.059 516.263 793.34 501.237C793.929 500.902 793.98 500.977 793.98 500.977C794.075 500.648 794.256 500.347 794.437 500.047C794.964 499.516 795.101 499.262 795.342 499.063Z" fill="#26783F"/>
<path d="M690.927 16.1898C691.226 16.7979 691.065 16.8599 691.065 16.8599C691.832 17.2099 692.471 17.6765 693.11 18.1431C693.32 18.7105 693.03 18.8859 693.03 18.8859C694.857 20.2001 696.417 21.7221 697.977 23.244C698.192 23.873 698.106 23.9406 698.106 23.9406C701.413 30.6056 706.574 37.1212 707.548 44.212C708.984 54.674 707.44 65.5454 707.166 76.2424C705.61 85.5006 701.116 92.3611 695.889 98.9744C694.469 100.771 693.828 103.591 693.758 105.969C693.558 112.775 693.985 119.599 693.839 126.409C693.792 128.614 692.736 130.798 691.753 134.43C686.764 129.326 682.613 125.14 678.541 120.878C677.167 119.44 676.199 117.563 674.692 116.311C668.424 111.108 662.519 107.116 652.918 108.416C640.703 110.07 627.812 109.891 615.626 107.932C592.185 104.162 576.52 84.5636 575.949 60.8884C575.877 57.8928 575.926 54.8944 575.919 51.8973C575.773 43.0397 578.48 35.9664 582.291 29.2062C582.87 28.8241 582.862 28.9175 582.862 28.9175C583.478 27.5609 584.176 26.2501 584.874 24.9393C585.403 24.6435 585.489 24.6079 585.489 24.6079C587.708 21.9832 589.931 19.4517 592.154 16.9203C592.813 16.751 592.919 16.8305 592.919 16.8305C593.182 16.3916 593.578 15.9607 593.973 15.5305C594.558 15.4899 594.606 15.4363 594.606 15.4363C600.652 9.15166 608.677 7.52721 616.686 7.24457C632.607 6.68272 648.581 6.42912 664.485 7.14294C671.315 7.44954 678.023 10.4864 684.787 12.2828C685.117 12.9206 685.037 12.9434 685.037 12.9434C687.005 13.9707 688.966 15.0803 690.927 16.1898Z" fill="#F96D32"/>
<path d="M988.972 767.412C989.813 768.862 990.578 769.861 991.344 770.861C991.555 771.452 991.54 771.55 991.54 771.55C993.762 777.792 995.907 783.972 998.052 790.153C999.45 807.945 998.232 824.656 988.008 838.798C983.368 845.216 982.243 851.315 982.741 858.525C982.97 861.837 982.78 865.177 982.78 868.907C971.909 865.851 962.865 859.801 953.614 854.169C952.825 853.938 952.671 854.008 952.516 854.077C951.698 854.176 951.385 854.331 951.071 854.486C950.416 854.349 950.196 854.741 949.938 854.768C933.956 856.474 917.95 858.435 902.633 851.233C884.76 842.162 877.004 827.384 875.39 808.826C874.119 794.209 876.184 780.322 885.282 768.189C885.865 767.844 885.976 767.969 885.976 767.969C890.674 760.222 897.896 755.882 906.276 753.148C912.91 752.411 918.784 751.291 924.704 750.945C932.981 750.462 941.33 750.995 949.579 750.289C959.086 749.475 967.675 751.512 975.757 756.318C976.167 756.874 976.07 756.939 976.07 756.939C980.056 759.985 984.003 763.141 987.95 766.297C988.592 766.935 988.832 767.104 988.972 767.412Z" fill="#26783F"/>
<path d="M348.014 341.147C348.511 342.605 348.937 343.379 349.363 344.153C349.429 344.831 349.265 344.885 349.265 344.885C350.819 349.162 353.419 353.553 353.667 358.073C354.159 367.065 353.358 376.127 353.091 385.16C349.223 402.648 338.559 412.332 322.359 416.485C326.066 427.886 326.243 431.948 322.884 440.932C316.541 435.567 309.748 431.15 304.75 425.22C299.821 419.373 295.046 416.537 287.137 416.81C277.086 417.158 266.685 416.921 256.945 414.701C238.29 410.449 223.988 391.028 222.944 371.849C221.965 353.863 228.22 339.364 242.131 328.047C248.677 322.722 256.393 319.552 264.553 319.264C281.662 318.659 298.862 318.245 315.921 319.355C330.239 320.286 340.878 328.624 348.014 341.147Z" fill="#0D7F99"/>
<path d="M27.2445 980.652C26.8643 980.083 26.9489 980.044 26.9489 980.044C25.6854 979.266 24.447 978.397 23.2086 977.528L23.2065 977.527C15.4376 970.748 10.7312 962.75 9.03941 953.369C6.53461 939.481 6.2632 925.558 12.0997 912.242C18.1207 898.505 28.3184 889.629 43.2284 886.854C58.1878 884.07 73.2103 884.016 87.3744 890.094C111.447 900.424 121.891 922.295 116.441 949.662C113.834 962.749 108.966 974.501 96.5713 981.633C95.5676 982.21 95.1298 984.391 95.0559 985.858C94.7131 992.659 94.7388 999.481 94.2782 1006.27C94.1743 1007.8 92.9222 1010.09 91.7055 1010.48C90.4663 1010.87 88.2263 1009.74 87.103 1008.6C80.794 1002.22 74.6898 995.641 68.5158 989.128C57.3888 989.283 46.7315 990.379 36.64 985.919C33.3707 984.475 30.3687 982.425 27.2445 980.652Z" fill="#26783F"/>
<path d="M400.343 273.281C399.213 279.161 398.376 284.342 397.539 289.523C393.183 293.708 389.587 297.721 385.403 300.98C383.266 302.644 381.816 303.668 382.033 306.742C382.418 312.183 382.141 317.671 382.141 323.837C372.575 322.3 365.923 316.971 359.287 311.612C358.942 311.038 358.991 310.996 358.991 310.996C351.303 302.853 341.538 302.472 331.132 302.679C313.69 303.026 296.229 302.428 278.776 302.228C274.454 300.492 270.894 299.043 267.334 297.593C266.626 297.013 266.342 296.882 266.12 296.618C257.758 289.824 253.171 281.634 253.063 271.132C252.985 263.519 252.723 255.904 252.832 248.294C252.946 240.271 255.509 233.049 260.861 226.935C261.372 226.554 261.474 226.484 261.474 226.484C267.624 218.882 275.308 215.749 285.12 216.068C313.38 216.985 341.655 217.47 369.929 217.853C378.144 217.964 385.383 219.763 391.091 225.986C391.398 226.567 391.122 226.819 391.122 226.819C399.148 233.854 400.282 243.362 400.537 253.171C400.316 254.75 400.402 255.51 400.488 256.269C400.282 261.429 400.351 265.864 400.421 270.3C400.235 271.812 400.289 272.547 400.343 273.281Z" fill="#26783F"/>
<path d="M230.151 596.192C230.725 595.787 230.643 595.792 230.643 595.792C231.082 594.481 231.538 593.25 231.995 592.02L231.996 592.018C232.563 591.695 232.561 591.605 232.561 591.605C238.939 580.171 248.218 573.176 261.585 572.941C272.202 572.755 282.849 572.691 293.44 573.312C298.428 573.605 303.314 575.633 308.246 576.875C321.695 583.43 327.299 594.872 330.613 607.781C337.246 633.613 326.679 658.71 303.125 671.279C297.983 674.023 296.163 677.214 295.093 682.317C294.052 687.283 291.985 692.035 290.009 697.959C282.336 692.526 278.645 685.133 275.006 677.699C274.662 676.497 274.318 676.03 273.975 675.562C273.93 674.971 273.571 674.732 273.571 674.732C271.101 673.885 268.662 673.609 266.301 673.018C259.314 671.27 252.357 669.399 245.389 667.575C244.949 667.036 244.998 666.998 244.998 666.998C232.257 659.856 226.793 648.002 225.217 634.353C223.718 621.371 225.69 608.55 230.151 596.192Z" fill="#F96D32"/>
<path d="M380.934 4.77386C386.455 4.99809 391.918 6.61528 397.408 7.60179C405.74 11.4103 411.288 17.1643 413.745 25.0806C419.045 42.1597 420.225 59.2217 409.461 74.9037C404.651 81.9115 398.874 88.1313 390.405 91.1359C389.414 91.4877 388.768 93.6634 388.513 95.0919C387.414 101.248 386.52 107.441 385.552 113.62L383.939 114.143C379.844 108.613 375.035 103.463 371.836 97.4555C367.919 90.0979 362.966 87.2477 354.493 87.5672C346.121 87.883 337.512 86.702 329.286 84.8999C318.021 82.4318 310.275 75.0352 307.616 63.741C305.688 55.5523 304.287 46.9885 304.42 38.62C304.662 23.439 311.359 11.7699 326.312 6.07454C333.586 5.57419 340.128 4.75921 346.684 4.63257C358.098 4.41208 369.533 4.31078 380.934 4.77386Z" fill="#26783F"/>
<path d="M987.41 125.929L958.224 99.7465C944.837 98.8342 931.7 98.785 918.592 98.1232C911.561 97.7681 904.582 96.3599 897.579 95.4269C890.435 91.7997 886.408 86.2354 886.262 79.3118C885.919 63.0381 886.266 46.7335 886.941 30.4666C887.1 26.6456 889.14 22.7316 890.995 19.1729L891.147 18.882C895.162 11.1715 902.025 7.94174 910.511 8.05252C934.813 8.36979 959.116 8.63796 983.412 9.19167C992.611 9.4013 1001.47 17.7064 1004.92 28.8991C1005.98 32.3441 1006.62 36.0373 1006.72 39.6374C1007.04 51.1191 1007.09 62.6103 1007.12 74.0982C1007.15 85.7237 1000.89 94.8123 987.41 102.225V125.929Z" fill="#E63234"/>
<path d="M439.008 933.355C436.851 931.62 434.412 930.236 432.102 928.692C422.091 927.762 412.553 927.368 403.016 926.975C381.216 927.075 363.906 911.822 361.285 890.174C359.775 877.708 360.242 865.26 366.055 853.629C371.002 843.73 378.042 836.162 388.988 832.91C393.047 832.102 396.396 830.546 399.706 830.626C417.958 831.067 436.2 831.908 454.446 832.612C467.391 836.467 475.397 845.013 481.297 855.849C491.458 874.51 490.399 893.079 478.843 910.465C475.174 915.985 468.716 919.911 462.955 923.681C459.526 925.925 458.333 927.603 459.037 931.802C459.754 936.073 458.925 940.622 458.571 945.033C458.51 945.785 457.43 946.455 456.354 947.707C450.448 942.803 444.788 938.004 439.008 933.355Z" fill="#0D7F99"/>
<path d="M454.019 453.516C449.695 450.25 445.317 448.131 439.826 448.972C434.608 448.905 430.279 448.961 425.95 449.016H425.947C423.623 448.959 422.216 449.008 420.81 449.058C417.295 448.944 414.615 448.966 411.935 448.987C388.23 449.561 365.056 427.185 364.953 404.454C364.893 391.132 367.101 378.538 376.338 368.208C382.722 361.069 390.573 356.878 400.426 356.94C417.418 357.045 434.414 356.845 451.402 357.139C480.092 357.635 494.736 374.787 496.652 402.024C497.115 408.602 496.379 415.348 495.476 421.918C493.824 433.925 486.904 441.815 475.356 445.601C474.744 445.801 474.164 446.098 473.782 446.259V467.085C466.932 462.424 460.271 458.24 454.019 453.516Z" fill="#F96D32"/>
<path d="M340.297 803.019C327.979 803.145 315.656 802.845 303.336 802.71C302.551 802.307 302.193 802.354 302.193 802.354C282.084 799.39 267.247 783.36 264.694 763.501C262.245 744.452 267.317 728.761 282.243 716.387C288.778 710.969 296.428 707.489 304.576 707.38C324.691 707.109 344.918 706.838 364.915 708.631C383.716 710.317 397.537 725.368 399.642 744.451L399.676 744.755C400.86 755.477 402.091 766.628 397.147 776.919C392.343 786.919 385.753 795.523 376.191 801.696C374.754 802.624 374.378 805.831 374.25 808.026C373.891 814.185 373.919 820.366 373.77 827.74C364.792 819.816 357.202 813.219 349.743 806.477C346.991 803.989 344.091 802.98 340.297 803.019Z" fill="#FBC628"/>
<path d="M773.133 11.0467C775.127 11.0182 777.122 11.0314 779.116 11.0252C789.04 11.1011 798.036 11.0272 807.031 10.9533C816.307 11.1063 824.763 10.2996 832.998 11.3032C842.774 12.4946 850.457 18.3436 856.712 25.8528C876.413 49.5033 872.575 88.2892 844.889 107.276C841.411 109.661 840.745 112.125 841.117 115.961C841.598 120.906 841.361 125.921 841.37 130.907C841.371 131.508 840.983 132.111 840.283 134.139L819.199 112.537C817.065 111.612 815.136 111.115 813.204 111.102C801.464 111.022 789.724 111.052 777.984 111.046C741.804 109.35 722.863 77.0387 726.928 50.9414C730.858 25.7105 747.691 11.4106 773.133 11.0467Z" fill="#0D7F99"/>
<path d="M520.126 351.98C518.491 357.169 516.614 362.281 514.837 367.425C511.32 370.681 510.01 368.065 508.7 365.966C505.357 360.605 502.121 355.178 498.845 349.775C496.891 346.551 494.305 345.179 490.273 345.069C478.307 344.742 466.291 344.373 454.421 342.96C443.523 341.662 435.254 335.008 428.281 326.824C411.794 307.476 412.575 276.195 430.209 259.052C437.836 251.637 447.118 247.247 457.947 247.145C478.091 246.956 498.245 246.599 518.379 247.031C539.462 247.483 556.055 261.339 561.108 281.772C564.196 294.259 564.962 306.851 559.8 318.914C553.303 334.098 540.636 342.311 525.397 346.887C522.385 347.792 520.998 349.214 520.126 351.98Z" fill="#FBC628"/>
<path d="M240.146 181.853C242.54 197.557 243.563 213.664 237.848 229.195C234.01 237.838 228.379 244.054 221.926 249.737C220.362 251.115 219.215 253.747 219.115 255.861C218.81 262.313 219.327 268.803 219.038 275.257C218.953 277.14 217.24 278.951 216.274 280.795C214.786 279.681 213.149 278.719 211.836 277.428C204.37 270.083 197.076 262.56 189.479 255.356C188.114 254.063 185.619 253.487 183.619 253.421C175.463 253.152 167.294 253.301 159.133 253.128C140.325 252.73 125.34 241.208 121.104 222.991C117.443 207.248 117.636 191.153 120.618 175.356C123.536 159.892 137.853 146.779 154.84 145.637C171.364 144.527 188.232 144.648 204.64 146.701C224.756 149.218 237.089 161.79 240.146 181.853Z" fill="#FBC628"/>
<path d="M715.171 396.224C731.75 396.139 748.047 397.853 763.281 405.151C790.215 420.351 800.722 451.567 786.813 476.999C778.152 492.836 764.702 503.796 745.763 504.983C736.047 505.591 726.222 504.279 716.443 504.196C714.131 504.177 711.032 504.921 709.628 506.499C704.999 511.704 700.984 517.456 696.724 522.991C695.913 524.045 695.226 525.301 694.184 526.047C692.545 527.219 690.652 528.036 688.867 529.003C688.004 527.176 686.491 525.383 686.393 523.515C686.025 516.542 685.906 509.539 686.128 502.56C686.249 498.752 685.103 496.2 682.232 493.577C663.986 476.91 657.201 456.548 664.767 432.662C671.64 410.966 692.405 396.34 715.171 396.224Z" fill="#E63234"/>
<path d="M939.422 121.151C945.764 122.053 951.558 126.818 957.599 129.835C982.55 150.975 984.37 190.947 956.576 212.13C955.393 213.032 954.697 215.354 954.762 216.974C955.052 224.188 955.701 231.387 956.221 238.591L954.522 239.539C950.207 236.374 945.232 233.808 941.708 229.926C933.191 220.544 923.365 217.109 910.654 218.538C897.88 219.974 885.088 218.365 872.979 213.162C853.316 204.714 841.888 184.837 843.907 162.203C845.641 142.775 860.933 124.891 880.31 120.641C886.894 119.197 893.875 119.036 900.66 119.15C913.603 119.368 926.66 119.335 939.422 121.151Z" fill="#FBC628"/>
<path d="M498.162 198.106C491.635 207.145 490.009 216.346 490.297 226.658L490.255 227.012C489.958 229.521 489.753 231.259 489.458 232.981C489.383 233.417 488.982 233.798 488.424 234.702C480.846 229.252 473.459 223.713 465.793 218.594C464.005 217.4 461.198 217.042 458.976 217.3C447.449 218.639 436.039 218.546 424.787 215.444C402.999 209.438 389.374 192.754 385.816 170.366C381.334 142.157 401.358 113.872 432.705 111.107C444.064 110.105 455.915 109.126 466.951 111.232C487.22 115.1 505.849 130.778 506.643 157.283C507.074 171.652 506.716 186.261 498.162 198.106Z" fill="#E63234"/>
<path d="M536.029 976.182C519.686 975.19 507.423 967.309 499.161 953.187C488.061 930.854 492.973 895.139 520.471 882.311C526.963 879.282 534.921 878.634 542.261 878.355C554.216 877.901 566.223 878.493 578.197 878.932C597.235 879.63 613.641 894.072 618.618 912.23C622.542 926.541 623.104 941.168 616.411 955.164C612.426 963.499 606.181 969.842 598.611 974.933C596.329 976.467 595.41 978.045 595.612 981.03C596.036 987.315 595.741 993.649 595.741 1000.75C592.632 998.161 589.717 995.917 587.013 993.442C581.984 988.839 577.202 983.957 572.046 979.506C570.477 978.151 568.049 977.231 565.964 977.13C555.994 976.643 545.99 976.787 536.029 976.182Z" fill="#FBC628"/>
<path d="M202.637 412.949C218.271 413.989 228.85 423.146 235.808 436.807C242.498 452.437 241.364 468.045 238.378 483.185C236.075 494.864 226.836 502.328 216.418 507.63C213.478 509.126 213.048 510.776 213.227 513.836C213.617 520.495 213.348 527.194 213.348 533.877L211.524 534.485C204.377 528.161 197.131 521.944 190.125 515.468C186.761 512.358 183.273 510.906 178.547 511.044C169.91 511.296 161.11 511.715 152.628 510.424C131 507.133 116.371 489.424 115.267 466.286C114.377 447.622 119.094 431.31 135.334 420.044C142.821 414.85 151.331 412.511 160.242 412.383C174.373 412.18 188.553 412.012 202.637 412.949Z" fill="#FBC628"/>
<path d="M655.066 521.342C657.346 528.62 657.085 536.695 657.983 544.406C658.566 561.735 651.034 574.462 639.866 585.475C637.35 587.955 635.998 590.075 636.694 594.048C637.793 600.317 637.67 606.801 638.162 614.779C631.901 609.095 626.611 604.676 621.773 599.807C615.297 593.291 607.875 590.37 598.553 590.572C590.451 590.748 582.243 589.792 574.208 588.535C556.63 585.783 545.356 574.746 540.131 558.508C534.17 539.979 533.898 521.46 547.007 505.017C555.547 494.304 566.199 487.762 580.299 487.85C590.29 487.912 600.288 487.745 610.273 488.02C631.592 488.608 648.658 500.888 655.066 521.342Z" fill="#FBC628"/>
<path d="M642.54 884.386L630.485 873.032C629.003 871.179 627.99 869.871 626.95 868.587C623.958 864.892 620.443 863.042 615.332 863.408C603.546 864.252 591.754 864.637 580.174 861.067C563.605 855.961 549.76 839.523 549.105 822.047C548.734 812.155 549.528 802.072 551.125 792.292C553.275 779.125 566.721 767.14 581.226 765.26C591.744 763.897 602.438 763.816 613.063 763.381C618.879 763.142 624.737 763.015 630.535 763.423C659.668 765.469 672.686 791.259 671.619 813.831C670.908 828.897 666.875 843.123 654.983 853.179C648.846 858.369 645.273 863.093 646.508 871.487C647.084 875.404 645.01 879.71 644.137 883.84L642.54 884.386Z" fill="#F96D32"/>
<path d="M347.989 616.661C356.306 597.166 372.634 586.297 393.606 586.294C404.508 586.82 414.497 587.095 424.439 587.927C448.933 589.976 461.82 606.293 464.749 630.66C467.189 650.965 460.25 668.301 444.114 681.563C442.92 682.544 442.347 684.709 442.15 686.4C441.352 693.277 440.814 700.184 440.179 707.079L438.691 708.015C434.447 705.049 429.377 702.786 426.13 698.971C419.458 691.129 411.843 688.391 401.486 688.602C385.408 688.928 370.125 685.382 358.277 672.815C345.711 659.487 340.75 633.626 347.989 616.661Z" fill="#0D7F99"/>
<path d="M535.83 10.0409C542.794 9.97259 548.744 12.8895 553.636 17.874C558.925 23.8996 561.312 30.1858 561.115 37.5968C560.844 47.7544 561.036 57.9234 560.87 68.0849C560.61 83.9953 552.792 92.0019 537.003 92.7404C535.217 92.8239 533.433 92.9468 532.16 93.0215V115.542C527.332 112.114 523.031 109.183 518.865 106.071C513.668 102.188 508.677 98.021 503.387 94.2751C501.926 93.2412 499.717 92.8842 497.847 92.8717C484.185 92.7804 470.523 92.9335 456.861 92.8544C445.885 92.7909 437.098 84.8374 434.803 74.1528C431.971 60.9738 432.114 47.7425 432.6 34.4135C433.094 20.8289 444.453 11.6237 456.888 11.2781C482.618 10.5628 508.363 10.3103 534.104 10.0579L535.83 10.0409Z" fill="#FBC628"/>
<path d="M892.388 649.868C894.428 663.748 893.292 677.439 886.851 690.277C883.893 694.966 881.06 698.866 878.681 703.025C877.616 704.888 876.875 707.305 876.999 709.411C877.472 717.418 875.315 724.752 872.335 732.752C867.985 728.427 863.896 724.856 860.396 720.779C853.564 712.822 846.004 710.795 835.143 712.396C806.905 716.561 784.575 700.596 777.596 673.375C772.689 654.241 779.488 633.021 793.934 622.166C800.164 617.485 807.336 615.529 814.909 615.122C826.21 614.515 837.53 614.241 848.843 613.879C871.656 613.148 889.069 627.283 892.388 649.868Z" fill="#FBC628"/>
<path d="M845.548 821.541C842.219 824.456 838.047 826.41 834.263 828.806C831.383 831.135 828.741 832.904 827.139 835.355C824.792 838.946 823.481 843.208 821.187 846.843C818.963 850.365 816.361 850.104 814.587 846.394L814.384 845.968C812.373 841.763 810.341 837.512 808.99 833.077C807.75 829.01 805.468 826.655 801.593 825.194C787.997 820.069 775.027 813.693 763.221 805.13C747.553 793.766 740.252 772.419 747.315 755.584C753.737 740.274 765.19 729.869 782.009 727.075C800.015 724.085 817.729 727.018 834.426 733.592C851.501 740.317 859.366 755.168 862.263 772.366C865.483 791.475 860.516 808.432 845.548 821.541Z" fill="#E63234"/>
<path d="M604.407 122.845C621.221 123.264 633.052 132.275 640.314 147.347C645.032 160.368 646.416 173.111 643.38 185.796C640.261 198.829 631.627 207.462 618.795 211.695C618.032 211.947 617.255 212.152 616.51 212.372L618.727 233.046L617.478 233.623C609.499 227.822 601.178 222.424 593.678 216.06C589.672 212.661 585.995 211.896 581.066 212.337C570.966 213.242 560.833 213.779 551.027 209.852C536.419 204.002 527.83 192.929 525.512 177.919C524.168 169.224 524.408 159.732 526.428 151.188C530.235 135.086 542.069 125.987 558.092 124.288C573.417 122.664 588.979 122.46 604.407 122.845Z" fill="#F96D32"/>
<path d="M209.034 612.18C206.785 620.249 202.201 626.929 195.755 632.305C189.717 635.55 188.432 639.505 189.774 645.698C190.805 650.452 189.435 655.727 189.048 662.181C186.175 660.157 184.496 659.215 183.105 657.954C176.714 652.158 170.513 646.147 163.984 640.516C162.467 639.208 159.955 638.628 157.855 638.505C152.06 638.167 146.202 638.643 140.437 638.088C123.163 636.427 112.117 626.628 107.943 610.181C102.542 588.898 103.74 568.21 117.57 549.797C123.324 542.136 131.08 538.023 140.656 537.87C149.979 537.72 159.311 537.85 168.634 538.07C189.071 538.552 202.705 548.831 208.923 568.419C213.543 582.973 213.094 597.615 209.034 612.18Z" fill="#0D7F99"/>
<path d="M276.268 183.582C265.976 180.725 258.553 173.361 253.612 163.758C245.554 145.549 248.2 129.694 261.268 115.699C268.697 107.744 278.612 104.61 288.88 103.068C305.103 100.631 321.489 101.052 337.503 104.311C352.939 107.453 365.552 116.358 369.591 131.823C373.973 148.6 370.679 165.196 359.411 179.305C355.04 184.777 348.826 187.417 342.213 188.598C338.834 189.201 338.601 190.587 339 193.231C339.409 195.94 339.629 198.677 339.972 201.759C332.493 201.899 326.585 199.65 322.211 194.9C317.06 189.307 311.186 187.617 303.725 187.4C294.523 187.131 285.112 186.037 276.268 183.582Z" fill="#0D7F99"/>
<path d="M120.197 104.208C120.275 105.286 118.909 106.468 118.206 107.603C111.544 102.787 105.378 98.5725 99.7181 93.7629C96.2466 90.813 92.9213 89.1988 88.1919 89.0907C70.2458 88.6807 52.2759 88.2176 34.3859 86.8473C23.089 85.9821 14.7424 77.9242 13.4393 66.6361C11.8381 52.7661 11.6108 38.7013 15.2902 25.0068C17.9804 14.9942 25.6103 9.15108 35.7327 9.23692C57.6961 9.42319 79.6633 9.63657 101.618 10.2426C117.287 10.6752 129.366 20.1658 132.068 35.4857C134.223 47.7074 134.813 60.5131 130.622 72.4748C128.878 77.4551 124.307 81.6488 120.399 85.5817C118.462 87.5317 117.822 88.78 118.436 91.4368C119.402 95.6122 119.888 99.9253 120.197 104.208Z" fill="#0D7F99"/>
<path d="M914.735 264.602C919.83 279.949 919.88 295.346 912.985 310.355C908.83 318.998 903.243 325.407 896.102 330.643C894.87 331.546 894.545 334.01 894.294 335.908L894.262 336.156C893.606 341.087 893.23 346.056 892.702 351.419C883.373 348.893 877.896 343.797 873.772 337.116C871.632 333.649 869.114 332.327 864.802 332.609C837.579 334.394 822.569 318.21 816.138 292.281C814.713 286.534 814.5 280.41 814.329 274.442C813.71 252.852 829.856 234.266 854.208 232.052C860.316 231.497 866.504 231.727 872.655 231.745C894.402 231.809 908.415 245.57 914.735 264.602Z" fill="#0D7F99"/>
<path d="M756.511 932.046L738.225 912.149C736.475 907.531 732.887 907.673 729.651 907.099C722.947 905.91 716.056 905.316 709.593 903.332C696.611 899.347 687.833 890.674 684.563 877.255C681.726 865.611 681.171 853.915 685.177 842.301C691.694 823.402 709.902 812.462 732.604 814.709C741.141 815.554 749.97 816.757 757.894 819.803C775.091 826.415 782.621 840.973 784.821 858.266C787.121 876.347 781.882 891.822 766.723 903.222C765.09 904.45 764.255 907.397 763.985 909.658C763.015 917.767 762.301 925.874 756.511 932.046Z" fill="#0D7F99"/>
<path d="M724.844 305.812C728.271 298.527 733.758 293.034 740.877 289.216C757.804 283.035 774.086 280.164 790.236 288.931C798.718 293.535 803.59 301.362 806.537 310.195C811.354 324.633 813.131 339.408 809.09 354.392C806.647 363.449 801.382 370.933 794.951 377.555C792.394 380.188 791.53 382.854 791.785 386.461C792.144 391.54 791.876 396.662 791.876 401.765L790.198 402.885C784.103 397.993 778.095 392.985 771.861 388.277C769.914 386.806 767.4 385.365 765.072 385.235C746.165 384.186 728.93 370.101 722.717 351.76C717.354 335.93 717.797 320.792 724.844 305.812Z" fill="#FBC628"/>
<path d="M19.7084 181.354C11.3058 169.936 8.46873 157.07 10.3646 143.093C13.4863 123.565 25.6458 107.292 50.0988 105.533C68.1668 104.233 84.5778 106.116 96.1279 121.825C108.139 138.162 111.028 170.651 91.6681 189.585C89.6601 191.549 89.1512 193.129 89.7543 196.004C91.3534 203.627 91.1285 211.252 87.0751 218.281C86.5331 219.221 85.6617 219.971 85.081 220.648C78.1897 214.22 71.5825 207.981 64.8579 201.87C63.8874 200.989 62.2256 200.065 61.0969 200.28C42.7737 203.771 29.9629 195.29 19.7084 181.354Z" fill="#E63234"/>
<path d="M812.789 209.702C811.659 215.582 810.821 220.763 809.984 225.944C805.628 230.129 802.032 234.142 797.848 237.401C795.712 239.065 794.261 240.089 794.479 243.163C794.863 248.604 794.586 254.092 794.586 260.258C785.021 258.721 778.369 253.392 771.732 248.033C771.388 247.46 771.437 247.417 771.437 247.417C763.748 239.274 753.984 238.893 743.577 239.1C726.135 239.447 708.674 238.849 691.221 238.649C686.899 236.913 683.339 235.464 679.779 234.014C679.071 233.434 678.788 233.303 678.566 233.039C670.203 226.245 665.616 218.054 665.509 207.552C665.431 199.939 665.169 192.325 665.277 184.715C665.392 176.692 667.954 169.47 673.306 163.356C673.817 162.975 673.919 162.905 673.919 162.905C680.069 155.303 687.753 152.17 697.566 152.489C725.825 153.406 754.101 153.891 782.374 154.274C790.59 154.385 797.828 156.184 803.536 162.406C803.843 162.988 803.568 163.24 803.568 163.24C811.593 170.275 812.727 179.783 812.982 189.592C812.762 191.171 812.848 191.931 812.933 192.69C812.727 197.85 812.797 202.285 812.867 206.721C812.681 208.233 812.735 208.968 812.789 209.702Z" fill="#26783F"/>
</g>
</g>
<defs>
<filter id="filter0_d_3_1546" x="-31" y="-25.5533" width="1086" height="1080.55" filterUnits="userSpaceOnUse" color-interpolation-filters="sRGB">
<feFlood flood-opacity="0" result="BackgroundImageFix"/>
<feColorMatrix in="SourceAlpha" type="matrix" values="0 0 0 0 0 0 0 0 0 0 0 0 0 0 0 0 0 0 127 0" result="hardAlpha"/>
<feOffset/>
<feGaussianBlur stdDeviation="15"/>
<feComposite in2="hardAlpha" operator="out"/>
<feColorMatrix type="matrix" values="0 0 0 0 0 0 0 0 0 0 0 0 0 0 0 0 0 0 0.5 0"/>
<feBlend mode="normal" in2="BackgroundImageFix" result="effect1_dropShadow_3_1546"/>
<feBlend mode="normal" in="SourceGraphic" in2="effect1_dropShadow_3_1546" result="shape"/>
</filter>
<clipPath id="clip0_3_1546">
<rect width="1024" height="1024" fill="white"/>
</clipPath>
</defs>
</svg>
